<?xml version="1.0" encoding="utf-8"?>
<!-- Generator: Adobe Illustrator 16.0.0, SVG Export Plug-In . SVG Version: 6.00 Build 0)  -->
<!DOCTYPE svg PUBLIC "-//W3C//DTD SVG 1.1//EN" "http://www.w3.org/Graphics/SVG/1.1/DTD/svg11.dtd">
<svg version="1.1" id="Layer_1" xmlns="http://www.w3.org/2000/svg" xmlns:xlink="http://www.w3.org/1999/xlink" x="0px" y="0px"
	 width="403px" height="112px" viewBox="0 0 403 112" enable-background="new 0 0 403 112" xml:space="preserve">
<g>
	<path fill="#FFFFFF" d="M19.501,80.56c3.314,0,5.645,1.398,7.354,3.004l-2.123,2.745c-1.502-1.295-3.056-2.227-5.075-2.227
		c-4.558,0-7.872,3.936-7.872,9.735c0,5.749,3.159,9.633,7.769,9.633c2.382,0,4.402-1.19,5.904-2.537l1.916,2.796
		c-2.279,2.021-5.179,3.263-8.183,3.263c-6.681,0-11.808-4.816-11.808-13.154C7.383,85.376,13.027,80.56,19.501,80.56z"/>
	<path fill="#FFFFFF" d="M46.589,90.399c0-3.211-1.088-6.317-5.179-6.317c-2.952,0-5.542,1.346-7.51,2.692l-1.709-2.952
		c2.331-1.502,5.853-3.263,9.892-3.263c6.163,0,8.752,4.092,8.752,10.358v15.433h-3.521l-0.362-3.004h-0.104
		c-2.434,1.968-5.23,3.625-8.338,3.625c-4.247,0-7.405-2.641-7.405-7.146C31.104,94.336,35.868,91.591,46.589,90.399z
		 M39.701,103.554c2.434,0,4.453-1.19,6.888-3.366v-6.991c-8.441,1.036-11.29,3.107-11.29,6.318
		C35.299,102.363,37.215,103.554,39.701,103.554z"/>
	<path fill="#FFFFFF" d="M58.865,81.182h3.521l0.363,3.625h0.155c2.382-2.382,4.972-4.247,8.441-4.247
		c5.282,0,7.664,3.419,7.664,9.84v15.951h-4.246V90.97c0-4.713-1.45-6.732-4.765-6.732c-2.59,0-4.351,1.346-6.888,3.884v18.229
		h-4.247V81.182z"/>
	<path fill="#FFFFFF" d="M87.197,81.182h3.521l0.362,3.625h0.155c2.383-2.382,4.972-4.247,8.441-4.247
		c5.283,0,7.665,3.419,7.665,9.84v15.951h-4.247V90.97c0-4.713-1.449-6.732-4.764-6.732c-2.59,0-4.351,1.346-6.889,3.884v18.229
		h-4.246V81.182z"/>
	<path fill="#FFFFFF" d="M129.771,90.399c0-3.211-1.088-6.317-5.179-6.317c-2.952,0-5.542,1.346-7.51,2.692l-1.709-2.952
		c2.331-1.502,5.853-3.263,9.892-3.263c6.163,0,8.752,4.092,8.752,10.358v15.433h-3.521l-0.362-3.004h-0.104
		c-2.435,1.968-5.23,3.625-8.338,3.625c-4.247,0-7.405-2.641-7.405-7.146C114.286,94.336,119.05,91.591,129.771,90.399z
		 M122.883,103.554c2.434,0,4.453-1.19,6.888-3.366v-6.991c-8.441,1.036-11.29,3.107-11.29,6.318
		C118.48,102.363,120.396,103.554,122.883,103.554z"/>
	<path fill="#FFFFFF" d="M151.679,80.975c3.418,0,5.594,1.554,7.251,3.107l-1.036,1.139c-1.657-1.554-3.625-2.796-6.215-2.796
		c-5.282,0-9.425,4.764-9.425,11.601c0,6.836,3.729,11.496,9.425,11.496c2.797,0,5.179-1.346,6.94-3.003l0.932,1.139
		c-2.071,1.864-4.661,3.314-7.872,3.314c-6.317,0-11.082-4.765-11.082-12.946C140.597,85.739,145.775,80.975,151.679,80.975z"/>
	<path fill="#FFFFFF" d="M173.848,80.975c5.904,0,10.979,4.765,10.979,13.051c0,8.182-5.075,12.946-10.979,12.946
		c-5.903,0-10.979-4.765-10.979-12.946C162.869,85.739,167.944,80.975,173.848,80.975z M173.848,105.521
		c5.283,0,9.322-4.66,9.322-11.496c0-6.837-4.039-11.601-9.322-11.601c-5.282,0-9.321,4.764-9.321,11.601
		C164.526,100.861,168.565,105.521,173.848,105.521z"/>
	<path fill="#FFFFFF" d="M192.599,81.596h1.347l0.207,3.936h0.104c2.278-2.589,5.179-4.557,7.872-4.557
		c4.039,0,6.007,2.071,6.836,5.179c2.9-3.211,5.696-5.179,8.493-5.179c4.868,0,7.354,3.004,7.354,9.425v15.951h-1.553V90.607
		c0-5.49-1.865-8.183-5.904-8.183c-2.486,0-4.972,1.657-7.872,4.972v18.954h-1.554V90.607c0-5.49-1.864-8.183-5.903-8.183
		c-2.383,0-4.972,1.657-7.872,4.972v18.954h-1.554V81.596z"/>
	<path fill="#FFFFFF" d="M234.345,81.596h1.347l0.207,3.936h0.104c2.278-2.589,5.179-4.557,7.872-4.557
		c4.039,0,6.007,2.071,6.836,5.179c2.9-3.211,5.696-5.179,8.493-5.179c4.868,0,7.354,3.004,7.354,9.425v15.951h-1.553V90.607
		c0-5.49-1.865-8.183-5.904-8.183c-2.486,0-4.972,1.657-7.872,4.972v18.954h-1.554V90.607c0-5.49-1.864-8.183-5.903-8.183
		c-2.383,0-4.972,1.657-7.872,4.972v18.954h-1.554V81.596z"/>
	<path fill="#FFFFFF" d="M284.584,80.975c5.697,0,9.322,4.039,9.322,11.394c0,0.518,0,1.035-0.104,1.657h-18.229
		c0,6.629,3.832,11.496,9.736,11.496c2.796,0,4.972-0.932,6.836-2.278l0.725,1.347c-1.864,1.14-3.936,2.382-7.665,2.382
		c-6.214,0-11.289-4.868-11.289-12.946C273.916,85.946,279.095,80.975,284.584,80.975z M292.353,92.679
		c0-6.836-3.107-10.254-7.769-10.254c-4.454,0-8.493,3.936-9.011,10.254H292.353z"/>
	<path fill="#FFFFFF" d="M300.849,81.596h1.347l0.207,4.661h0.104c1.657-3.004,4.039-5.282,7.043-5.282
		c0.829,0,1.554,0.104,2.383,0.518l-0.415,1.45c-0.828-0.311-1.242-0.414-2.175-0.414c-2.278,0-4.972,1.761-6.939,6.629v17.193
		h-1.554V81.596z"/>
	<path fill="#FFFFFF" d="M325.087,80.975c3.418,0,5.594,1.554,7.251,3.107l-1.036,1.139c-1.657-1.554-3.625-2.796-6.215-2.796
		c-5.282,0-9.425,4.764-9.425,11.601c0,6.836,3.729,11.496,9.425,11.496c2.797,0,5.179-1.346,6.94-3.003l0.932,1.139
		c-2.071,1.864-4.661,3.314-7.872,3.314c-6.317,0-11.082-4.765-11.082-12.946C314.005,85.739,319.184,80.975,325.087,80.975z"/>
	<path fill="#FFFFFF" d="M346.945,80.975c5.697,0,9.322,4.039,9.322,11.394c0,0.518,0,1.035-0.104,1.657h-18.229
		c0,6.629,3.832,11.496,9.736,11.496c2.796,0,4.972-0.932,6.836-2.278l0.725,1.347c-1.864,1.14-3.936,2.382-7.665,2.382
		c-6.214,0-11.289-4.868-11.289-12.946C336.277,85.946,341.456,80.975,346.945,80.975z M354.714,92.679
		c0-6.836-3.107-10.254-7.769-10.254c-4.454,0-8.493,3.936-9.011,10.254H354.714z"/>
</g>
<path fill="#FFFFFF" d="M162,6v36h42V6H162z M170,40h-6v-8h6V40z M202,16h-38V8h38V16z"/>
<g>
	<path fill="#FFFFFF" d="M365.922,85.298v-8.77h2.917c0.971,0,1.729,0.199,2.275,0.598c0.548,0.401,0.819,0.999,0.819,1.794
		c0,0.396-0.114,0.751-0.345,1.065c-0.228,0.312-0.545,0.547-0.95,0.698c0.521,0.117,0.922,0.368,1.203,0.753
		c0.281,0.384,0.424,0.834,0.424,1.343c0,0.824-0.269,1.45-0.81,1.877c-0.537,0.427-1.28,0.642-2.226,0.642H365.922z
		 M367.385,80.221H369c0.455,0,0.812-0.107,1.074-0.322c0.265-0.215,0.396-0.519,0.396-0.914c0-0.433-0.139-0.756-0.416-0.966
		c-0.276-0.21-0.683-0.315-1.215-0.315h-1.454V80.221z M367.385,81.309v2.813h1.846c0.506,0,0.894-0.114,1.167-0.345
		c0.273-0.229,0.409-0.564,0.409-1.001c0-0.465-0.114-0.825-0.343-1.083c-0.229-0.256-0.587-0.385-1.072-0.385H367.385z"/>
	<path fill="#FFFFFF" d="M380.11,81.353h-3.836v2.77h4.45v1.176h-5.914v-8.77h5.872v1.175h-4.408v2.475h3.836V81.353z"/>
	<path fill="#FFFFFF" d="M389.06,77.703h-2.649v7.595h-1.463v-7.595h-2.649v-1.175h6.762V77.703z"/>
	<path fill="#FFFFFF" d="M395.312,83.249h-3.434l-0.698,2.049h-1.481l3.222-8.77h1.386l3.187,8.77h-1.488L395.312,83.249z
		 M392.3,82.025h2.596l-1.271-3.746h-0.037L392.3,82.025z"/>
</g>
<g>
</g>
<g>
</g>
<g>
</g>
<g>
</g>
<g>
</g>
<g>
</g>
<g>
</g>
<g>
</g>
<g>
</g>
<g>
</g>
<g>
</g>
<g>
</g>
<g>
</g>
<g>
</g>
<g>
</g>
</svg>
