<?xml version="1.0" encoding="utf-8"?>
<!-- Generator: Adobe Illustrator 16.0.0, SVG Export Plug-In . SVG Version: 6.00 Build 0)  -->
<!DOCTYPE svg PUBLIC "-//W3C//DTD SVG 1.1//EN" "http://www.w3.org/Graphics/SVG/1.1/DTD/svg11.dtd">
<svg version="1.1" id="Layer_1" xmlns="http://www.w3.org/2000/svg" xmlns:xlink="http://www.w3.org/1999/xlink" x="0px" y="0px"
	 width="700px" height="370px" viewBox="0 0 700 370" enable-background="new 0 0 700 370" xml:space="preserve">
<title>Develop-icons</title>
<path fill="#EDEDED" d="M523.377,157.86c0.13-6.79-3.899-13.32-12.225-18.139L382.35,65.328c-18.139-10.47-50.121-9.158-71.11,2.934
	l-117.333,67.779c-11.609,6.703-17.479,15.378-17.344,23.57v52.56c-0.13,6.79,3.899,13.32,12.225,18.139l128.763,74.361
	c18.139,10.47,50.12,9.157,71.109-2.934l117.359-67.121c11.608-6.703,17.479-15.378,17.344-23.57L523.377,157.86z"/>
<path fill="#F6F6F6" d="M317.596,251.441l-128.763-74.35c-18.139-10.47-15.861-28.958,5.125-41.047l117.359-67.733
	c20.943-12.091,52.925-13.407,71.109-2.934l128.763,74.347c18.139,10.47,15.861,28.958-5.125,41.047l-117.359,67.733
	C367.717,260.596,335.732,261.91,317.596,251.441z"/>
<path fill="#C6C6C6" d="M418.623,174.42c0,0-76.934,8.895-87.93-4.914l0.526-0.087v-19.448l-80.261,15.425v21.917l22.958-4.426
	c4.678,5.064,10.118,9.365,16.124,12.751c35.532,20.503,92.925,20.767,128.586,0.699
	C418.623,196.326,418.537,174.464,418.623,174.42z"/>
<path fill="#00B25B" d="M448.986,110.28l-22.963,4.425c-4.162-4.555-109.089-33.517-144.71-13.45c0,0,0.087,21.862,0,21.905
	l20.853,12.048c18.269-10.164,44.293-12.43,66.551-7.01l0,0v19.497l53.806,15.508l26.461-30.976V110.28H448.986z"/>
<path fill="#DADADA" d="M273.916,160.97c4.677,5.065,10.116,9.369,16.121,12.756c35.531,20.494,92.916,20.758,128.586,0.694
	l-20.853-12.048c-24.227,13.45-63.001,13.274-87.054-0.613c-3.062-1.762-5.927-3.848-8.544-6.221l29.039-5.61l-53.792-15.514
	l-26.461,30.982L273.916,160.97z"/>
<path fill="#C7FFC9" d="M389.183,113.96c3.062,1.762,5.927,3.848,8.545,6.221l-29.048,5.608l53.8,15.508l26.461-30.976
	l-22.954,4.437c-4.69-5.051-10.129-9.351-16.124-12.75c-35.532-20.503-92.925-20.766-128.587-0.703l20.853,12.048
	C326.401,99.854,365.173,100.07,389.183,113.96z"/>
<path fill="#00B25B" d="M360.363,272.108c0,0-26.489-39.202,0.635-89.152C360.998,182.957,382.013,225.696,360.363,272.108"/>
<path fill="#00B25B" d="M354.153,275.104c0,0,1.902-34.493-48.456-76.775C305.698,198.328,315.437,257.581,354.153,275.104"/>
<path fill="#00B25B" d="M365.355,275.104c0,0-4.349-33.77,44.956-76.294C410.312,198.81,395.796,261.146,365.355,275.104"/>
<path fill="#00B25B" d="M352.487,282.001c0,0-14.477-28.552-71.723-39.573C280.765,242.428,314.475,281.287,352.487,282.001"/>
<path fill="#00B25B" d="M368.678,279.759c0,0,10.691-27.558,69.821-32.236C438.499,247.522,399.276,285.087,368.678,279.759"/>
<path fill="#00B25B" d="M356.605,285.74c0,0-25.309-9.125-58.061,8.025C298.545,293.766,341.168,299.939,356.605,285.74"/>
<path fill="#00B25B" d="M363.1,285.501c0,0,20.465-10.456,52.195,7.838C415.295,293.339,378.437,299.316,363.1,285.501"/>
<path fill="#00B25B" d="M356.605,287.641c0,0,3.27,12.225-13.842,28.32C342.763,315.961,341.733,293.879,356.605,287.641"/>
<path fill="#00B25B" d="M362.15,287.641c0,0,1,15.803,14.555,25.003C376.705,312.644,376.506,292.157,362.15,287.641"/>
</svg>
