<?xml version="1.0" encoding="utf-8"?>
<!-- Generator: Adobe Illustrator 16.0.0, SVG Export Plug-In . SVG Version: 6.00 Build 0)  -->
<!DOCTYPE svg PUBLIC "-//W3C//DTD SVG 1.1//EN" "http://www.w3.org/Graphics/SVG/1.1/DTD/svg11.dtd">
<svg version="1.1" id="Layer_1" xmlns="http://www.w3.org/2000/svg" xmlns:xlink="http://www.w3.org/1999/xlink" x="0px" y="0px"
	 width="504px" height="72px" viewBox="0 0 504 72" enable-background="new 0 0 504 72" xml:space="preserve">
<path fill="#FFFFFF" d="M83.414,25.878h-0.336v0.328v14.958c0,2.176-0.912,2.775-4.241,2.775h-4.891
	c-3.424,0-4.069-0.559-4.069-3.497v-1.576v-0.33h-0.338h-2.622H66.58v0.33v2.215c0,4.017,2.143,5.73,7.165,5.73h5.321
	c4.746,0,7.493-1.01,7.493-6.176V26.206v-0.328h-0.338H83.414z"/>
<polygon fill="#FFFFFF" points="92.553,43.723 92.553,26.206 92.553,25.878 92.216,25.878 89.409,25.878 89.071,25.878 
	89.071,26.206 89.071,46.268 89.071,46.595 89.409,46.595 108.312,46.595 108.648,46.595 108.648,46.268 108.648,44.049 
	108.648,43.723 108.312,43.723 "/>
<path fill="#FFFFFF" d="M132.555,29.07l6.37,10.417h-12.739L132.555,29.07z M134.592,26.042l-0.097-0.16h-0.192h-3.495h-0.19
	l-0.099,0.16l-12.315,20.063l-0.302,0.492h0.592h3.179h0.194l0.098-0.162l2.478-4.076h16.227l2.479,4.076l0.099,0.162h0.192h3.179
	h0.59l-0.299-0.492L134.592,26.042z"/>
<path fill="#FFFFFF" d="M169.208,25.878h-0.335v0.328v14.983c0,1.561-0.309,2.75-4.166,2.75h-9.738c-3.854,0-4.162-1.189-4.162-2.75
	V26.206v-0.328h-0.334h-2.81h-0.338v0.328v15.012c0,4.678,2.836,5.593,7.729,5.593h9.567c4.896,0,7.729-0.915,7.729-5.593V26.206
	v-0.328h-0.336H169.208z"/>
<path fill="#FFFFFF" d="M197.652,35.268v2.048c0,5.933-2.347,6.406-5.417,6.406h-13.889V28.755h14.345
	C195.983,28.755,197.652,29.761,197.652,35.268 M191.947,25.882h-16.748h-0.336v0.325v20.061v0.327h0.336h16.662
	c7.023,0,9.274-2.518,9.274-10.355C201.135,28.206,199.073,25.882,191.947,25.882"/>
<polygon fill="#FFFFFF" points="203.694,25.878 203.358,25.878 203.358,26.206 203.358,46.272 203.358,46.598 203.694,46.598 
	206.5,46.598 206.842,46.598 206.842,46.272 206.842,26.206 206.842,25.878 206.5,25.878 "/>
<path fill="#FFFFFF" d="M232.957,32.474v7.529c0,2.759-1.359,3.936-4.532,3.936h-11.366c-3.173,0-4.532-1.177-4.532-3.936v-7.529
	c0-2.757,1.359-3.936,4.532-3.936h11.366C231.598,28.538,232.957,29.716,232.957,32.474 M228.712,25.666h-11.939
	c-5.487,0-7.728,2.271-7.728,7.832v5.482c0,5.562,2.24,7.831,7.728,7.831h11.939c5.488,0,7.728-2.269,7.728-7.831v-5.482
	C236.44,27.936,234.2,25.666,228.712,25.666"/>
<path fill="#FFFFFF" d="M241.111,43.906v-1.2h1.001c0.429,0,0.875,0.063,0.875,0.592c0,0.688-0.727,0.608-1.222,0.608H241.111z
	 M242.352,44.232c0.62-0.015,1.099-0.263,1.099-0.927c0-0.559-0.314-0.896-1.239-0.896h-1.529v3.382h0.428v-1.56h0.786l1,1.56h0.512
	L242.352,44.232z M241.848,47.135c1.727,0,3.124-1.359,3.124-3.037c0-1.663-1.397-3.022-3.124-3.022
	c-1.736,0-3.141,1.359-3.141,3.022C238.707,45.775,240.111,47.135,241.848,47.135 M241.848,46.735c-1.53,0-2.645-1.151-2.645-2.638
	c0-1.471,1.115-2.623,2.645-2.623c1.52,0,2.628,1.152,2.628,2.623C244.476,45.584,243.368,46.735,241.848,46.735"/>
<rect x="252.152" y="19.351" fill="#FFFFFF" width="1.101" height="33.466"/>
<polygon fill="#002D5C" points="268.169,25.672 268.169,34.27 278.444,34.27 278.444,25.672 281.218,25.672 281.218,46.22 
	278.444,46.22 278.444,36.586 268.169,36.586 268.169,46.22 265.428,46.22 265.428,25.672 "/>
<path fill="#002D5C" d="M287.587,38.873c0,3.231,1.922,5.67,4.633,5.67c2.647,0,4.633-2.408,4.633-5.73
	c0-2.5-1.292-5.671-4.569-5.671C289.005,33.142,287.587,36.068,287.587,38.873 M299.689,38.721c0,5.457-3.908,7.835-7.596,7.835
	c-4.129,0-7.312-2.927-7.312-7.591c0-4.939,3.341-7.835,7.564-7.835C296.728,31.129,299.689,34.208,299.689,38.721"/>
<path fill="#002D5C" d="M304.072,31.464l2.018,7.5c0.441,1.646,0.851,3.17,1.135,4.694h0.094c0.347-1.494,0.852-3.079,1.355-4.665
	l2.49-7.53h2.333l2.363,7.377c0.566,1.769,1.009,3.323,1.355,4.817h0.095c0.252-1.494,0.661-3.049,1.166-4.786l2.175-7.409h2.741
	l-4.916,14.755h-2.521l-2.333-7.042c-0.536-1.646-0.978-3.109-1.354-4.847h-0.064c-0.378,1.768-0.85,3.292-1.386,4.878l-2.459,7.011
	h-2.521l-4.602-14.755H304.072z"/>
<path fill="#002D5C" d="M333.954,31.464l2.017,7.5c0.441,1.646,0.852,3.17,1.136,4.694h0.094c0.347-1.494,0.851-3.079,1.355-4.665
	l2.489-7.53h2.333l2.363,7.377c0.567,1.769,1.009,3.323,1.355,4.817h0.095c0.252-1.494,0.662-3.049,1.166-4.786l2.175-7.409h2.742
	l-4.917,14.755h-2.521l-2.332-7.042c-0.536-1.646-0.977-3.109-1.355-4.847h-0.062c-0.378,1.768-0.852,3.292-1.388,4.878
	l-2.458,7.011h-2.521l-4.601-14.755H333.954z"/>
<path fill="#002D5C" d="M365.412,37.409c0.03-1.707-0.726-4.359-3.847-4.359c-2.805,0-4.033,2.5-4.255,4.359H365.412z
	 M357.28,39.331c0.062,3.627,2.457,5.121,5.232,5.121c1.985,0,3.182-0.336,4.223-0.762l0.473,1.92
	c-0.977,0.428-2.647,0.915-5.074,0.915c-4.696,0-7.501-2.988-7.501-7.439c0-4.451,2.71-7.956,7.153-7.956
	c4.98,0,6.304,4.237,6.304,6.95c0,0.549-0.062,0.977-0.095,1.251H357.28z"/>
<path fill="#002D5C" d="M380.951,40.214c0,0.396,0.063,0.763,0.126,1.099c0.504,1.858,2.175,3.14,4.16,3.14
	c2.932,0,4.634-2.317,4.634-5.701c0-2.957-1.608-5.487-4.539-5.487c-1.891,0-3.655,1.311-4.191,3.323
	c-0.095,0.335-0.189,0.732-0.189,1.098V40.214z M378.209,36.282c0-1.89-0.062-3.415-0.126-4.817h2.49l0.126,2.531h0.063
	c1.135-1.798,2.931-2.866,5.421-2.866c3.688,0,6.461,3.018,6.461,7.5c0,5.305-3.341,7.927-6.934,7.927
	c-2.018,0-3.782-0.854-4.696-2.317h-0.063v8.019h-2.742V36.282z"/>
<rect x="396.145" y="24.575" fill="#002D5C" width="2.773" height="21.645"/>
<path fill="#002D5C" d="M411.62,38.689c-3.025-0.061-6.461,0.457-6.461,3.324c0,1.737,1.197,2.561,2.615,2.561
	c1.986,0,3.247-1.22,3.688-2.47c0.095-0.274,0.157-0.579,0.157-0.853V38.689z M412.03,46.22l-0.221-1.858h-0.095
	c-0.851,1.157-2.49,2.194-4.665,2.194c-3.089,0-4.665-2.104-4.665-4.237c0-3.567,3.279-5.519,9.173-5.488v-0.305
	c0-1.219-0.347-3.414-3.468-3.414c-1.418,0-2.899,0.426-3.971,1.097l-0.63-1.769c1.261-0.792,3.089-1.311,5.011-1.311
	c4.664,0,5.8,3.079,5.8,6.037v5.519c0,1.279,0.062,2.529,0.252,3.535H412.03z"/>
<path fill="#002D5C" d="M419.533,31.464l3.341,8.72c0.347,0.975,0.725,2.134,0.977,3.018h0.063c0.283-0.884,0.599-2.013,0.978-3.079
	l3.025-8.659h2.931l-4.16,10.518c-1.985,5.061-3.341,7.652-5.231,9.237c-1.355,1.158-2.711,1.616-3.404,1.738l-0.693-2.256
	c0.693-0.214,1.607-0.64,2.427-1.312c0.756-0.579,1.702-1.615,2.332-2.987c0.126-0.274,0.221-0.488,0.221-0.641
	s-0.062-0.366-0.189-0.701l-5.642-13.597H419.533z"/>
<path fill="#002D5C" d="M429.662,44.562c0-1.13,0.79-1.924,1.894-1.924c1.104,0,1.862,0.794,1.862,1.924
	c0,1.099-0.726,1.923-1.894,1.923C430.42,46.485,429.662,45.661,429.662,44.562"/>
<path fill="#002D5C" d="M435.621,26.121h0.235c0.275,0,0.498-0.089,0.498-0.304c0-0.19-0.144-0.316-0.459-0.316
	c-0.13,0-0.222,0.013-0.274,0.025V26.121z M435.608,27.299h-0.498v-2.078c0.196-0.038,0.471-0.063,0.825-0.063
	c0.406,0,0.589,0.063,0.746,0.152c0.118,0.088,0.209,0.253,0.209,0.456c0,0.228-0.183,0.405-0.445,0.481v0.025
	c0.21,0.076,0.328,0.228,0.394,0.507c0.065,0.316,0.104,0.443,0.157,0.519h-0.537c-0.065-0.076-0.104-0.266-0.17-0.507
	c-0.04-0.228-0.17-0.329-0.445-0.329h-0.235V27.299z M434.285,26.21c0,0.925,0.707,1.659,1.677,1.659
	c0.942,0,1.637-0.734,1.637-1.647c0-0.925-0.694-1.672-1.65-1.672S434.285,25.297,434.285,26.21 M438.148,26.21
	c0,1.178-0.956,2.103-2.2,2.103c-1.23,0-2.214-0.924-2.214-2.103c0-1.153,0.983-2.078,2.214-2.078
	C437.192,24.132,438.148,25.057,438.148,26.21"/>
</svg>
