<?xml version="1.0" encoding="utf-8"?>
<svg version="1.1" xmlns="http://www.w3.org/2000/svg" xmlns:xlink="http://www.w3.org/1999/xlink" x="0px" y="0px"
	 viewBox="0 0 3275.7 1183.2" style="enable-background:new 0 0 3275.7 1183.2;" xml:space="preserve">
<style type="text/css">
	.st0{opacity:0.2;fill:url(#SVGID_1_);}
	.st1{opacity:0.2;fill:url(#SVGID_2_);}
	.st2{opacity:0.2;fill:url(#SVGID_3_);}
	.st3{opacity:0.3;fill:url(#SVGID_4_);}
	.st4{opacity:0.3;fill:url(#SVGID_5_);}
</style>
<linearGradient id="SVGID_1_" gradientUnits="userSpaceOnUse" x1="1167.1326" y1="718.8179" x2="1167.1326" y2="1.583862e-02">
	<stop  offset="0" style="stop-color:#FFFFFF;stop-opacity:0"/>
	<stop  offset="1" style="stop-color:#FFFFFF"/>
</linearGradient>
<path class="st0" d="M1112.1,718.8c22.1-59,44.7-120.5,67.7-185.1C1246,348.4,1331.3,168.6,1434.1,0h-170.7
	c-120,223-221.2,368.6-363.3,529.6C975.4,602.5,1044.4,664.9,1112.1,718.8z"/>
<linearGradient id="SVGID_2_" gradientUnits="userSpaceOnUse" x1="450.0669" y1="1129.4703" x2="450.0669" y2="1.583862e-02">
	<stop  offset="0" style="stop-color:#FFFFFF;stop-opacity:0"/>
	<stop  offset="1" style="stop-color:#FFFFFF"/>
</linearGradient>
<path class="st1" d="M0,1129.5c286.3-56.5,581.9-266,715.5-402.8c69.8-71.5,130.2-135.4,184.6-197.1
	c-63.9-61.9-132-130.9-207.9-209.2C507.9,130.2,286.6,25.4,78.1,0H0V1129.5z"/>
<linearGradient id="SVGID_3_" gradientUnits="userSpaceOnUse" x1="556.0341" y1="1183.1841" x2="556.0341" y2="529.607">
	<stop  offset="0" style="stop-color:#FFFFFF;stop-opacity:0"/>
	<stop  offset="1" style="stop-color:#FFFFFF"/>
</linearGradient>
<path class="st2" d="M900.1,529.6c-54.4,61.7-114.8,125.6-184.6,197.1C581.9,863.5,286.3,1073,0,1129.5v53.7h920.4
	c63.9-138.6,126.2-290.1,191.6-464.4C1044.4,664.9,975.4,602.5,900.1,529.6z"/>
<linearGradient id="SVGID_4_" gradientUnits="userSpaceOnUse" x1="2193.884" y1="1074.0559" x2="2193.884" y2="1.583862e-02">
	<stop  offset="0" style="stop-color:#FFFFFF;stop-opacity:0"/>
	<stop  offset="1" style="stop-color:#FFFFFF"/>
</linearGradient>
<path class="st3" d="M3175.9,646.4c41.8-54.7,74.5-110,99.8-164V0H1434.1c-102.8,168.5-188.2,348.4-254.3,533.7
	c-23.1,64.6-45.6,126.2-67.7,185.1c205.4,163.7,398.7,249.8,717.5,316.1C2430.1,1159.9,2925.9,973.4,3175.9,646.4z"/>
<linearGradient id="SVGID_5_" gradientUnits="userSpaceOnUse" x1="2098.064" y1="1183.1841" x2="2098.064" y2="482.4344">
	<stop  offset="0" style="stop-color:#FFFFFF;stop-opacity:0"/>
	<stop  offset="1" style="stop-color:#FFFFFF"/>
</linearGradient>
<path class="st4" d="M3275.7,482.4c-25.3,54-58,109.3-99.8,164c-250,327-745.8,513.5-1346.3,388.5
	c-318.8-66.4-512.1-152.4-717.5-316.1c-65.5,174.3-127.7,325.7-191.6,464.4h2355.3V482.4z"/>
</svg>
