<?xml version="1.0" encoding="utf-8"?>
<!-- Generator: Adobe Illustrator 21.0.0, SVG Export Plug-In . SVG Version: 6.00 Build 0)  -->
<svg version="1.1" id="Layer_1" xmlns="http://www.w3.org/2000/svg" xmlns:xlink="http://www.w3.org/1999/xlink" x="0px" y="0px"
	 viewBox="0 0 3275.7 1183.2" style="enable-background:new 0 0 3275.7 1183.2;" xml:space="preserve">
<style type="text/css">
	.st0{opacity:0.2;fill:url(#SVGID_1_);}
	.st1{opacity:0.2;fill:url(#SVGID_2_);}
	.st2{opacity:0.2;fill:url(#SVGID_3_);}
</style>
<linearGradient id="SVGID_1_" gradientUnits="userSpaceOnUse" x1="2093.4805" y1="1183.1841" x2="2093.4805" y2="1.580811e-02">
	<stop  offset="0" style="stop-color:#FFFFFF;stop-opacity:0"/>
	<stop  offset="1" style="stop-color:#FFFFFF"/>
</linearGradient>
<path class="st0" d="M911.3,502c30.6,260.7,67.4,480.6,121.5,681.2h2243V0h-828.4c-41.6,16.3-82.8,33.5-123.6,51.6
	C1742.2,310.2,1381.4,424.4,911.3,502z"/>
<linearGradient id="SVGID_2_" gradientUnits="userSpaceOnUse" x1="455.6304" y1="581.9225" x2="455.6304" y2="1.580811e-02">
	<stop  offset="0" style="stop-color:#FFFFFF;stop-opacity:0"/>
	<stop  offset="1" style="stop-color:#FFFFFF"/>
</linearGradient>
<path class="st1" d="M0,577.7c158.3,8.2,301,4,412.2-8.5C597.3,548.2,759.9,527,911.3,502c-17.9-152.3-33.9-317.6-49.9-502H0V577.7z
	"/>
<linearGradient id="SVGID_3_" gradientUnits="userSpaceOnUse" x1="516.3661" y1="1183.1841" x2="516.3661" y2="502.0043">
	<stop  offset="0" style="stop-color:#FFFFFF;stop-opacity:0"/>
	<stop  offset="1" style="stop-color:#FFFFFF"/>
</linearGradient>
<path class="st2" d="M412.2,569.2C301,581.7,158.3,585.9,0,577.7v605.5h1032.7C978.6,982.6,941.9,762.7,911.3,502
	C759.9,527,597.3,548.2,412.2,569.2z"/>
</svg>
