<?xml version="1.0" encoding="utf-8"?>
<svg version="1.1" xmlns="http://www.w3.org/2000/svg" xmlns:xlink="http://www.w3.org/1999/xlink" x="0px" y="0px"
	 viewBox="0 0 3275.7 1183.2" style="enable-background:new 0 0 3275.7 1183.2;" xml:space="preserve">
<style type="text/css">
	.st0{opacity:0.2;}
	.st1{fill:url(#SVGID_1_);}
	.st2{opacity:0.2;fill:url(#SVGID_2_);enable-background:new    ;}
	.st3{fill:url(#SVGID_3_);}
	.st4{opacity:0.2;fill:url(#SVGID_4_);enable-background:new    ;}
	.st5{fill:url(#SVGID_5_);}
	.st6{opacity:0.2;fill:url(#SVGID_6_);enable-background:new    ;}
	.st7{fill:url(#SVGID_7_);}
	.st8{opacity:0.2;fill:url(#SVGID_8_);enable-background:new    ;}
</style>
<g class="st0">
	
		<linearGradient id="SVGID_1_" gradientUnits="userSpaceOnUse" x1="1336.75" y1="-205.4485" x2="1336.75" y2="1933.6079" gradientTransform="matrix(1 0 0 -1 0 1186)">
		<stop  offset="0" style="stop-color:#FFFFFF;stop-opacity:0"/>
		<stop  offset="1" style="stop-color:#FFFFFF"/>
	</linearGradient>
	<path class="st1" d="M0,792.7c43.6,87.7,105.8,179.9,194.5,266.6c46.4,45.4,97.8,86.8,153.6,123.9h1604.3
		c306.9-141,485.4-308.1,721.1-613.2c-193.6-164.4-333.3-317-516.7-570H0V792.7z"/>
	
		<linearGradient id="SVGID_2_" gradientUnits="userSpaceOnUse" x1="1336.75" y1="2.7999" x2="1336.75" y2="1185.9999" gradientTransform="matrix(1 0 0 -1 0 1186)">
		<stop  offset="0" style="stop-color:#FFFFFF;stop-opacity:0"/>
		<stop  offset="1" style="stop-color:#FFFFFF"/>
	</linearGradient>
	<path class="st2" d="M0,792.7c43.6,87.7,105.8,179.9,194.5,266.6c46.4,45.4,97.8,86.8,153.6,123.9h1604.3
		c306.9-141,485.4-308.1,721.1-613.2c-193.6-164.4-333.3-317-516.7-570H0V792.7z"/>
	
		<linearGradient id="SVGID_3_" gradientUnits="userSpaceOnUse" x1="2974.5999" y1="99.2457" x2="2974.5999" y2="1358.8361" gradientTransform="matrix(1 0 0 -1 0 1186)">
		<stop  offset="0" style="stop-color:#FFFFFF;stop-opacity:0"/>
		<stop  offset="1" style="stop-color:#FFFFFF"/>
	</linearGradient>
	<path class="st3" d="M2868.5,307.4c-70.9,98.1-134.7,184.6-195,262.6c69.5,59.1,145.9,119.7,233.9,187
		c84.5,64.7,216.7,143,368.3,207.1V0h-91.4C3069.1,77,2961,179.5,2868.5,307.4z"/>
	
		<linearGradient id="SVGID_4_" gradientUnits="userSpaceOnUse" x1="2974.5999" y1="221.9" x2="2974.5999" y2="1186" gradientTransform="matrix(1 0 0 -1 0 1186)">
		<stop  offset="0" style="stop-color:#FFFFFF;stop-opacity:0"/>
		<stop  offset="1" style="stop-color:#FFFFFF"/>
	</linearGradient>
	<path class="st4" d="M2868.5,307.4c-70.9,98.1-134.7,184.6-195,262.6c69.5,59.1,145.9,119.7,233.9,187
		c84.5,64.7,216.7,143,368.3,207.1V0h-91.4C3069.1,77,2961,179.5,2868.5,307.4z"/>
	
		<linearGradient id="SVGID_5_" gradientUnits="userSpaceOnUse" x1="174.05" y1="-1964.5293" x2="174.05" y2="789.3147" gradientTransform="matrix(1 0 0 -1 0 1186)">
		<stop  offset="0" style="stop-color:#FFFFFF;stop-opacity:0"/>
		<stop  offset="1" style="stop-color:#FFFFFF"/>
	</linearGradient>
	<path class="st5" d="M0,792.7v390.5h348.1c-55.9-37.1-107.3-78.6-153.6-123.9C105.8,972.6,43.6,880.4,0,792.7z"/>
	
		<linearGradient id="SVGID_6_" gradientUnits="userSpaceOnUse" x1="174.05" y1="2.8" x2="174.05" y2="393.3" gradientTransform="matrix(1 0 0 -1 0 1186)">
		<stop  offset="0" style="stop-color:#FFFFFF;stop-opacity:0"/>
		<stop  offset="1" style="stop-color:#FFFFFF"/>
	</linearGradient>
	<path class="st6" d="M0,792.7v390.5h348.1c-55.9-37.1-107.3-78.6-153.6-123.9C105.8,972.6,43.6,880.4,0,792.7z"/>
	
		<linearGradient id="SVGID_7_" gradientUnits="userSpaceOnUse" x1="2614.05" y1="-1964.5293" x2="2614.05" y2="789.3147" gradientTransform="matrix(1 0 0 -1 0 1186)">
		<stop  offset="0" style="stop-color:#FFFFFF;stop-opacity:0"/>
		<stop  offset="1" style="stop-color:#FFFFFF"/>
	</linearGradient>
	<path class="st7" d="M2673.5,570c-235.7,305.1-414.2,472.2-721.1,613.2h1323.3v-219c-151.6-64.1-283.8-142.4-368.3-207.1
		C2819.4,689.7,2743,629.1,2673.5,570z"/>
	
		<linearGradient id="SVGID_8_" gradientUnits="userSpaceOnUse" x1="2614.05" y1="2.8" x2="2614.05" y2="616" gradientTransform="matrix(1 0 0 -1 0 1186)">
		<stop  offset="0" style="stop-color:#FFFFFF;stop-opacity:0"/>
		<stop  offset="1" style="stop-color:#FFFFFF"/>
	</linearGradient>
	<path class="st8" d="M2673.5,570c-235.7,305.1-414.2,472.2-721.1,613.2h1323.3v-219c-151.6-64.1-283.8-142.4-368.3-207.1
		C2819.4,689.7,2743,629.1,2673.5,570z"/>
</g>
</svg>
