<?xml version="1.0" encoding="utf-8"?>
<svg version="1.1" xmlns="http://www.w3.org/2000/svg" xmlns:xlink="http://www.w3.org/1999/xlink" x="0px" y="0px"
	 viewBox="0 0 3275.7 1183.2" style="enable-background:new 0 0 3275.7 1183.2;" xml:space="preserve">
<style type="text/css">
	.st0{opacity:0.2;fill:url(#SVGID_1_);}
	.st1{opacity:0.2;fill:url(#SVGID_2_);}
	.st2{opacity:0.2;fill:url(#SVGID_3_);}
</style>
<linearGradient id="SVGID_1_" gradientUnits="userSpaceOnUse" x1="986.3303" y1="591.5996" x2="986.3303" y2="1.580811e-02">
	<stop  offset="0" style="stop-color:#FFFFFF;stop-opacity:0"/>
	<stop  offset="1" style="stop-color:#FFFFFF"/>
</linearGradient>
<path class="st0" d="M0,462c256,113.5,575.1,160.3,934.3,108.7c464-66.7,690.4-185.9,1038.4-483.1c-23-29.6-44.8-58.6-65.8-87.6H0
	V462z"/>
<linearGradient id="SVGID_2_" gradientUnits="userSpaceOnUse" x1="2624.1802" y1="822.9465" x2="2624.1802" y2="1.580811e-02">
	<stop  offset="0" style="stop-color:#FFFFFF;stop-opacity:0"/>
	<stop  offset="1" style="stop-color:#FFFFFF"/>
</linearGradient>
<path class="st1" d="M2158.8,313c191.6,222.4,725.4,624.9,1116.9,478.7V0H2073.2c-34.7,30.8-68.1,59.9-100.5,87.6
	C2027.3,157.9,2088.2,231.1,2158.8,313z"/>
<linearGradient id="SVGID_3_" gradientUnits="userSpaceOnUse" x1="1637.85" y1="1183.1841" x2="1637.85" y2="87.6013">
	<stop  offset="0" style="stop-color:#FFFFFF;stop-opacity:0"/>
	<stop  offset="1" style="stop-color:#FFFFFF"/>
</linearGradient>
<path class="st2" d="M2158.8,313c-70.6-81.9-131.5-155.1-186.2-225.4c-348,297.2-574.4,416.4-1038.4,483.1
	C575.1,622.3,256,575.5,0,462v721.2h3275.7V791.7C2884.2,938,2350.5,535.4,2158.8,313z"/>
</svg>
