<?xml version="1.0" encoding="utf-8"?>
<!-- Generator: Adobe Illustrator 16.0.0, SVG Export Plug-In . SVG Version: 6.00 Build 0)  -->
<!DOCTYPE svg PUBLIC "-//W3C//DTD SVG 1.1//EN" "http://www.w3.org/Graphics/SVG/1.1/DTD/svg11.dtd">
<svg version="1.1" id="Layer_1" xmlns="http://www.w3.org/2000/svg" xmlns:xlink="http://www.w3.org/1999/xlink" x="0px" y="0px"
	 width="133.677px" height="27.654px" viewBox="0 0 133.677 27.654" enable-background="new 0 0 133.677 27.654"
	 xml:space="preserve">
<path fill="#FFFFFF" d="M46.041,15.184c0,0.939-0.147,1.814-0.449,2.634c-0.301,0.812-0.728,1.521-1.284,2.134l2.713,2.619
	l-2.288,1.854l-2.899-2.828c-0.407,0.145-0.832,0.259-1.271,0.336c-0.439,0.075-0.896,0.113-1.36,0.113
	c-2.05,0-3.713-0.644-4.987-1.936c-1.271-1.295-1.912-2.938-1.912-4.928v-2.911c0-1.983,0.636-3.625,1.905-4.92
	c1.27-1.297,2.929-1.946,4.971-1.946c2.031,0,3.684,0.649,4.957,1.946c1.272,1.295,1.908,2.938,1.908,4.92L46.041,15.184
	L46.041,15.184z M42.297,12.251c0-1.151-0.271-2.103-0.812-2.841c-0.548-0.742-1.314-1.112-2.308-1.112
	c-1.015,0-1.79,0.369-2.326,1.105c-0.535,0.736-0.807,1.687-0.807,2.848v2.936c0,1.17,0.273,2.127,0.817,2.864
	c0.543,0.741,1.32,1.111,2.338,1.111c0.984,0,1.748-0.37,2.289-1.111c0.54-0.737,0.809-1.694,0.809-2.864V12.251L42.297,12.251z"/>
<path fill="#FFFFFF" d="M47.998,15.696c0-1.808,0.509-3.28,1.533-4.417c1.021-1.138,2.443-1.705,4.275-1.705
	c1.836,0,3.268,0.567,4.286,1.705c1.022,1.136,1.533,2.609,1.533,4.417v0.233c0,1.812-0.51,3.287-1.533,4.42
	c-1.021,1.135-2.44,1.697-4.265,1.697c-1.843,0-3.276-0.562-4.298-1.697c-1.024-1.133-1.533-2.605-1.533-4.42L47.998,15.696
	L47.998,15.696z M51.752,15.929c0,1.005,0.156,1.798,0.472,2.37c0.312,0.571,0.853,0.859,1.604,0.859
	c0.731,0,1.259-0.288,1.579-0.865c0.315-0.579,0.477-1.369,0.477-2.364v-0.233c0-0.979-0.159-1.762-0.477-2.351
	c-0.32-0.589-0.854-0.884-1.602-0.884c-0.739,0-1.271,0.296-1.583,0.891c-0.314,0.591-0.472,1.373-0.472,2.344L51.752,15.929
	L51.752,15.929z"/>
<path fill="#FFFFFF" d="M60.784,15.829c0-1.873,0.409-3.385,1.227-4.533c0.819-1.147,1.973-1.722,3.46-1.722
	c0.556,0,1.059,0.128,1.506,0.381c0.449,0.256,0.851,0.622,1.203,1.095V4.487h3.755v17.329h-3.253l-0.268-1.481
	c-0.372,0.562-0.802,0.982-1.295,1.274c-0.493,0.293-1.049,0.438-1.671,0.438c-1.481,0-2.63-0.547-3.443-1.644
	c-0.812-1.096-1.223-2.542-1.223-4.343v-0.232L60.784,15.829L60.784,15.829z M64.537,16.062c0,0.977,0.144,1.735,0.428,2.283
	c0.285,0.545,0.768,0.814,1.44,0.814c0.393,0,0.735-0.073,1.039-0.218c0.3-0.146,0.545-0.357,0.734-0.638V13.45
	c-0.189-0.318-0.436-0.562-0.729-0.733c-0.296-0.169-0.639-0.255-1.023-0.255c-0.666,0-1.146,0.309-1.439,0.922
	c-0.301,0.615-0.449,1.431-0.449,2.443V16.062L64.537,16.062z"/>
<path fill="#FFFFFF" d="M79.558,22.048c-1.769,0-3.183-0.554-4.235-1.665c-1.059-1.108-1.583-2.504-1.583-4.178v-0.421
	c0-1.828,0.479-3.322,1.438-4.483c0.958-1.155,2.332-1.73,4.116-1.726c1.629,0,2.907,0.487,3.835,1.466
	c0.924,0.979,1.387,2.307,1.387,3.979v1.968h-6.864l-0.026,0.063c0.08,0.613,0.335,1.118,0.758,1.518
	c0.42,0.395,0.982,0.595,1.688,0.595c0.71,0,1.276-0.056,1.705-0.168c0.423-0.105,0.962-0.302,1.615-0.575l0.889,2.287
	c-0.525,0.386-1.206,0.705-2.037,0.962C81.407,21.923,80.514,22.048,79.558,22.048z M79.29,12.463c-0.54,0-0.945,0.192-1.216,0.577
	c-0.271,0.385-0.437,0.9-0.494,1.543l0.033,0.058h3.23v-0.287c0-0.609-0.124-1.075-0.377-1.4
	C80.217,12.625,79.823,12.463,79.29,12.463z"/>
<path fill="#FFFFFF" d="M102.469,15.184c0,1.99-0.63,3.634-1.892,4.928c-1.263,1.292-2.912,1.936-4.95,1.936
	c-2.052,0-3.715-0.644-4.988-1.936c-1.271-1.295-1.907-2.938-1.907-4.928v-2.911c0-1.983,0.636-3.625,1.902-4.92
	c1.271-1.297,2.928-1.946,4.974-1.946c2.025,0,3.677,0.649,4.952,1.946c1.271,1.295,1.909,2.938,1.909,4.92V15.184L102.469,15.184z
	 M98.727,12.251c0-1.151-0.271-2.103-0.813-2.841c-0.546-0.742-1.314-1.112-2.305-1.112c-1.018,0-1.792,0.369-2.33,1.105
	c-0.536,0.736-0.806,1.687-0.806,2.848v2.936c0,1.17,0.274,2.127,0.816,2.864c0.546,0.741,1.325,1.111,2.339,1.111
	c0.984,0,1.747-0.37,2.289-1.111c0.538-0.737,0.81-1.694,0.81-2.864V12.251L98.727,12.251z"/>
<path fill="#FFFFFF" d="M107.902,9.797l0.144,1.689c0.396-0.603,0.878-1.07,1.457-1.405c0.577-0.339,1.221-0.507,1.935-0.507
	c1.179,0,2.098,0.381,2.761,1.143c0.662,0.767,0.997,1.979,0.997,3.646v7.454h-3.758v-7.465c0-0.69-0.141-1.177-0.428-1.461
	c-0.285-0.287-0.707-0.43-1.262-0.43c-0.349,0-0.658,0.063-0.928,0.188c-0.271,0.126-0.502,0.302-0.694,0.521v8.646h-3.745V9.797
	H107.902z"/>
<path fill="#FFFFFF" d="M122.722,22.048c-1.771,0-3.185-0.554-4.236-1.665c-1.057-1.108-1.583-2.504-1.583-4.178v-0.421
	c0-1.828,0.479-3.322,1.438-4.483c0.958-1.155,2.328-1.73,4.115-1.726c1.629,0,2.906,0.487,3.832,1.466
	c0.927,0.979,1.389,2.307,1.389,3.979v1.968h-6.862l-0.022,0.062c0.081,0.613,0.333,1.118,0.756,1.518
	c0.421,0.395,0.985,0.595,1.688,0.595c0.713,0,1.278-0.056,1.706-0.168c0.427-0.105,0.964-0.302,1.614-0.575l0.892,2.287
	c-0.524,0.386-1.207,0.705-2.04,0.962C124.573,21.923,123.675,22.048,122.722,22.048z M122.455,12.463
	c-0.54,0-0.945,0.192-1.217,0.577s-0.436,0.9-0.493,1.543l0.034,0.058h3.229v-0.287c0-0.609-0.125-1.075-0.377-1.4
	C123.381,12.625,122.99,12.463,122.455,12.463z"/>
<path fill="#FFFFFF" d="M17.402,11.462c-0.095-0.101-0.197-0.201-0.318-0.299c-3.271-2.637-3.338-5.13-3.338-5.13
	s-0.228,2.487-3.229,5.048c-0.045,0.039-0.07,0.081-0.111,0.12c-1.154,0.963-1.906,2.396-1.906,4.018
	c0,2.899,2.35,5.249,5.249,5.249c2.896,0,5.249-2.35,5.249-5.249C18.994,13.744,18.382,12.416,17.402,11.462z"/>
</svg>
