<svg id="Layer_1" data-name="Layer 1" xmlns="http://www.w3.org/2000/svg" viewBox="0 0 128 128"><title>Develop-icons</title><path d="M69.126,64.057h0c-.043,3.685-2.511,7.381-7.392,10.2-9.816,5.664-25.688,5.7-35.439.065-4.9-2.826-7.327-6.544-7.283-10.262h0V78.526h0c-.043,3.718,2.381,7.436,7.283,10.262,9.762,5.631,25.622,5.609,35.439-.065,4.892-2.826,7.36-6.512,7.392-10.2h0Z" fill="#189cc0"/><path d="M26.284,74.319c9.762,5.631,25.622,5.609,35.439-.065,4.892-2.826,7.36-6.512,7.392-10.2.043-3.718-2.381-7.436-7.283-10.262-9.762-5.631-25.622-5.609-35.439.065-4.892,2.826-7.36,6.512-7.392,10.2C18.957,67.775,21.392,71.493,26.284,74.319Z" fill="#f4f4f4"/><path d="M69.126,46.088h0c-.043,3.685-2.511,7.381-7.392,10.2-9.816,5.664-25.688,5.7-35.439.065-4.9-2.826-7.327-6.544-7.283-10.262h0V60.557h0c-.043,3.718,2.381,7.436,7.283,10.262,9.762,5.631,25.622,5.609,35.439-.065,4.892-2.826,7.36-6.512,7.392-10.2h0Z" fill="#189cc0"/><path d="M26.284,56.35c9.762,5.631,25.622,5.609,35.439-.065,4.892-2.826,7.36-6.512,7.392-10.2.043-3.718-2.381-7.436-7.283-10.262-9.762-5.631-25.622-5.609-35.439.065C21.5,38.718,19.033,42.4,19,46.088,18.957,49.806,21.392,53.524,26.284,56.35Z" fill="#f4f4f4"/><path d="M61.842,32.326c9.762,5.631,9.708,14.8-.109,20.459s-25.688,5.7-35.439.065-9.708-14.8.109-20.459S52.08,26.694,61.842,32.326Z" fill="#189cc0"/><rect x="19.001" y="28.119" width="50.125" height="14.469" fill="#189cc0"/><path d="M61.842,17.857c9.762,5.631,9.708,14.8-.109,20.459s-25.688,5.7-35.439.065-9.708-14.8.109-20.459S52.08,12.215,61.842,17.857Z" fill="#17b9e6"/><path d="M104.771,54.208c-.043-.033-.1-.054-.141-.087s-.1-.054-.141-.087-.1-.054-.141-.087-.1-.054-.141-.087-.1-.054-.141-.087-.1-.054-.141-.087-.1-.054-.141-.087-.1-.054-.141-.087-.1-.054-.141-.087-.1-.054-.141-.087-.1-.054-.141-.087-.1-.054-.141-.087-.1-.054-.141-.087-.1-.054-.141-.087-.1-.054-.141-.087-.1-.054-.141-.087-.1-.054-.141-.087-.1-.054-.141-.087-.1-.054-.141-.087-.1-.054-.141-.087-.1-.054-.141-.087-.1-.054-.141-.087-.1-.054-.141-.087-.1-.054-.141-.087-.1-.054-.141-.087-.1-.054-.141-.087-.1-.054-.141-.087-.1-.054-.141-.087-.1-.054-.141-.087-.1-.054-.141-.087-.1-.054-.141-.087-.1-.054-.141-.087-.1-.054-.141-.087-.1-.054-.141-.087-.1-.054-.141-.087-.1-.054-.141-.087-.1-.054-.141-.087-.1-.054-.141-.087-.1-.054-.141-.087-.1-.054-.141-.087-.1-.054-.141-.087-.1-.054-.141-.087-.1-.054-.141-.087-.1-.054-.141-.087-.1-.054-.141-.087-.1-.054-.141-.087-.1-.054-.141-.087-.1-.054-.141-.087-.1-.054-.141-.087-.1-.054-.141-.087-.1-.054-.141-.087-.1-.054-.141-.087-.1-.054-.141-.087-.1-.054-.141-.087-.1-.054-.141-.087-.1-.054-.141-.087-.1-.054-.141-.087-.1-.054-.141-.087-.1-.054-.141-.087-.1-.054-.141-.087-.1-.054-.141-.087-.1-.054-.141-.087-.1-.054-.141-.087-.1-.054-.141-.087-.1-.054-.141-.087-.1-.054-.141-.087-.1-.054-.141-.087-.1-.054-.141-.087-.1-.054-.141-.087-.1-.054-.141-.087-.1-.054-.141-.087-.1-.054-.141-.087-.1-.054-.141-.087-.1-.054-.141-.087-.1-.054-.141-.087-.1-.054-.141-.087-.1-.054-.141-.087-.1-.054-.141-.087-.1-.054-.141-.087-.1-.054-.141-.087c-2.576-1.511-6.153-1.294-10.11.989a25.4,25.4,0,0,0-6.24,5.261l-.065-.033c-.043-.033-.1-.054-.141-.087s-.1-.054-.141-.087-.1-.054-.141-.087-.1-.054-.141-.087-.1-.054-.141-.087-.1-.054-.141-.087-.1-.054-.141-.087-.1-.054-.141-.087-.1-.054-.141-.087-.1-.054-.141-.087-.1-.054-.141-.087-.1-.054-.141-.087-.1-.054-.141-.087-.1-.054-.141-.087-.1-.054-.141-.087-.1-.054-.141-.087-.1-.054-.141-.087-.1-.054-.141-.087-.1-.054-.141-.087-.1-.054-.141-.087-.1-.054-.141-.087-.1-.054-.141-.087-.1-.054-.141-.087-.1-.054-.141-.087-.1-.054-.141-.087-.1-.054-.141-.087-.1-.054-.141-.087-.1-.054-.141-.087-.1-.054-.141-.087c-3.326-1.935-7.936-1.652-13.034,1.283-10.1,5.946-17.937,18.839-18.828,30.036a12.756,12.756,0,0,0-1.555.761c-5.588,3.229-10.121,11.034-10.121,17.448,0,3.25,1.163,5.522,3.044,6.544.043.033.1.054.141.087s.1.054.141.087.1.054.141.087.1.054.141.087.1.054.141.087.1.054.141.087.1.054.141.087.1.054.141.087.1.054.141.087.1.054.141.087.1.054.141.087.1.054.141.087.1.054.141.087.1.054.141.087.1.054.141.087.1.054.141.087.1.054.141.087.1.054.141.087.1.054.141.087.1.054.141.087.1.054.141.087.1.054.141.087.1.054.141.087.1.054.141.087.1.054.141.087.1.054.141.087.1.054.141.087.1.054.141.087.1.054.141.087.1.054.141.087.1.054.141.087.1.054.141.087.1.054.141.087.1.054.141.087.1.054.141.087.1.054.141.087.1.054.141.087.1.054.141.087.1.054.141.087.1.054.141.087.1.054.141.087.1.054.141.087.1.054.141.087.1.054.141.087.1.054.141.087.1.054.141.087.1.054.141.087.1.054.141.087.1.054.141.087.1.054.141.087.1.054.141.087.1.054.141.087.1.054.141.087.1.054.141.087.1.054.141.087.1.054.141.087.1.054.141.087.1.054.141.087.1.054.141.087.1.054.141.087.1.054.141.087.1.054.141.087.1.054.141.087.1.054.141.087.1.054.141.087.1.054.141.087.1.054.141.087.1.054.141.087.1.054.141.087.1.054.141.087.1.054.141.087.1.054.141.087.1.054.141.087.1.054.141.087.1.054.141.087.1.054.141.087.1.054.141.087.1.054.141.087.1.054.141.087.1.054.141.087C46.015,114.737,107.391,55.654,104.771,54.208Z" fill="#ededed"/><path d="M94.8,55.274A26.283,26.283,0,0,0,87.671,61.6c-3-5.207-9.24-6.381-16.448-2.218-9.555,5.511-17.393,18.4-18.285,29.6a12.756,12.756,0,0,0-1.555.761c-5.588,3.229-10.121,11.034-10.121,17.448s4.533,8.99,10.121,5.772L94.792,87.9C102.641,83.364,109,72.384,109,63.383S102.651,50.741,94.8,55.274Z" fill="#f6f6f6"/></svg>