<svg id="Layer_1" data-name="Layer 1" xmlns="http://www.w3.org/2000/svg" viewBox="0 0 128 128"><title>Develop-icons</title><path d="M123.979,54.611c.045-2.349-1.349-4.608-4.229-6.275L75.191,22.6c-6.275-3.622-17.339-3.168-24.6,1.015L10,47.063c-4.016,2.319-6.047,5.32-6,8.154V73.4c-.045,2.349,1.349,4.608,4.229,6.275L52.774,105.4c6.275,3.622,17.339,3.168,24.6-1.015l40.6-23.22c4.016-2.319,6.047-5.32,6-8.154Z" fill="#ededed"/><path d="M52.79,86.985,8.245,61.264c-6.275-3.622-5.487-10.018,1.773-14.2l40.6-23.432c7.245-4.183,18.309-4.638,24.6-1.015l44.545,25.72c6.275,3.622,5.487,10.018-1.773,14.2l-40.6,23.432C70.129,90.152,59.064,90.607,52.79,86.985Z" fill="#f6f6f6"/><path d="M87.74,60.34s-26.615,3.077-30.419-1.7l.182-.03V51.882L29.737,57.218V64.8l7.942-1.531a22.91,22.91,0,0,0,5.578,4.411c12.292,7.093,32.147,7.184,44.484.242C87.74,67.918,87.71,60.355,87.74,60.34Z" fill="#c6c6c6"/><path d="M98.244,38.151,90.3,39.682c-1.44-1.576-37.739-11.595-50.062-4.653,0,0,.03,7.563,0,7.578l7.214,4.168c6.32-3.516,15.323-4.3,23.023-2.425h0v6.745L89.089,56.46l9.154-10.716V38.151Z" fill="#159ec3"/><path d="M37.679,55.687A22.91,22.91,0,0,0,43.256,60.1C55.548,67.19,75.4,67.281,87.74,60.34l-7.214-4.168c-8.381,4.653-21.795,4.592-30.116-.212a17.1,17.1,0,0,1-2.956-2.152L57.5,51.867,38.891,46.5,29.737,57.218Z" fill="#dadada"/><path d="M77.555,39.424a17.1,17.1,0,0,1,2.956,2.152l-10.049,1.94,18.612,5.365,9.154-10.716L90.287,39.7a23.278,23.278,0,0,0-5.578-4.411c-12.292-7.093-32.147-7.184-44.484-.243l7.214,4.168C55.836,34.544,69.249,34.619,77.555,39.424Z" fill="#17b9e6"/></svg>