<svg id="Layer_1" data-name="Layer 1" xmlns="http://www.w3.org/2000/svg" xmlns:xlink="http://www.w3.org/1999/xlink" viewBox="0 0 182 222"><defs><clipPath id="clip-path"><path d="M178.308,64.753,94.013,16.086a6.027,6.027,0,0,0-6.027,0L3.693,64.753A6.026,6.026,0,0,0,.68,69.972v97.335a6.026,6.026,0,0,0,3.013,5.219l84.294,48.667a6.027,6.027,0,0,0,6.027,0l84.295-48.667a6.027,6.027,0,0,0,3.012-5.219V69.972A6.027,6.027,0,0,0,178.308,64.753Z" fill="none"/></clipPath></defs><title>hex-icon-edits</title><path d="M178.308,64.753,94.013,16.086a6.027,6.027,0,0,0-6.027,0L3.693,64.753A6.026,6.026,0,0,0,.68,69.972v97.335a6.026,6.026,0,0,0,3.013,5.219l84.294,48.667a6.027,6.027,0,0,0,6.027,0l84.295-48.667a6.027,6.027,0,0,0,3.012-5.219V69.972A6.027,6.027,0,0,0,178.308,64.753Z" fill="#1d1d1b" opacity="0.4"/><g clip-path="url(#clip-path)"><g opacity="0.14"><polygon points="91.183 257.869 237.596 173.337 90.966 88.932 -55.229 173.337 91.183 257.869"/></g></g><polygon points="30.211 166.209 23.573 162.374 23.578 74.878 30.211 78.71 30.211 166.209" fill="#159ec3"/><path d="M82.028,48.792,30.211,78.71v87.5l61.376-35.437,61.376,35.437V78.71L101.147,48.792A19.119,19.119,0,0,0,82.028,48.792Z" fill="#17b9e6"/><path d="M78.615,43.1,23.579,74.878l6.633,3.831L82.028,48.792a19.119,19.119,0,0,1,19.119,0L152.964,78.71l6.633-3.831L104.56,43.1A25.944,25.944,0,0,0,78.615,43.1Z" fill="#73cae8"/><polygon points="152.964 166.209 159.602 162.374 159.597 74.878 152.964 78.71 152.964 166.209" fill="#45c7eb"/><path d="M147.993,160.117l-7.483-4.32V84.268L91.588,52.9v83.5s35.457,19.979,48.921,28.366v0h0a38.1,38.1,0,0,1,9.04-3.923A10.575,10.575,0,0,1,147.993,160.117Z" fill="#ededed"/><path d="M140.51,164.764a60.38,60.38,0,0,1,9.04-3.923v-80.5l-9.04,3.923Z" fill="#f6f6f6"/><path d="M42.665,84.268V155.8l-7.483,4.32a10.589,10.589,0,0,1-1.557.722,38.092,38.092,0,0,1,9.04,3.923h0l0,0L91.588,136.4V52.9Z" fill="#f6f6f6"/><polygon points="42.665 164.764 33.625 160.841 33.625 80.345 42.665 84.268 42.665 164.764" fill="#ededed"/><path d="M149.55,80.345s-1.047-.428-1.557-.722L98.416,51a13.831,13.831,0,0,0-6.828-1.362A13.832,13.832,0,0,0,84.759,51L35.182,79.623c-.511.294-1.557.722-1.557.722l9.04,3.923L91.588,55.9,140.51,84.268Z" fill="#fff"/><path d="M110.536,80.541l-.29.675-1.041-.6,1.719-3.579,1.041.6,1.679,5.54-1.081-.624-.285-1.006Zm.876-2.067-.58,1.356,1.15.664Z" fill="#ccc"/><path d="M115.75,79.823a2.928,2.928,0,0,1,1.6,2.52c0,1.071-.586,1.353-1.6.765l-.723-.417v1.286l-1.013-.585V78.821Zm-.723,1.953.671.388c.444.256.7.149.7-.334a1.274,1.274,0,0,0-.7-1.122l-.671-.388Z" fill="#ccc"/><path d="M117.887,85.627V81.056l1.013.585v4.571Z" fill="#ccc"/><path d="M122.053,84.859l-.336.538a4.234,4.234,0,0,0-.967-.911c-.176-.1-.3-.1-.3.067,0,.483,1.616,1.181,1.61,2.406,0,.725-.552.8-1.292.377a4.361,4.361,0,0,1-1.377-1.291l.313-.538a3.878,3.878,0,0,0,1.087,1.065c.194.112.336.116.336-.047,0-.516-1.588-1.165-1.582-2.4,0-.725.535-.808,1.246-.4A4.669,4.669,0,0,1,122.053,84.859Z" fill="#ccc"/><polygon points="136.271 106.077 94.991 82.244 94.991 79.522 136.271 103.354 136.271 106.077" fill="#ccc"/><polygon points="136.271 111.276 94.991 87.443 94.991 84.72 136.271 108.553 136.271 111.276" fill="#ccc"/><polygon points="136.271 116.869 94.991 93.036 94.991 90.314 136.271 114.147 136.271 116.869" fill="#ccc"/><polygon points="136.271 122.068 94.991 98.235 94.991 95.513 136.271 119.346 136.271 122.068" fill="#ccc"/><polygon points="136.271 128.218 94.991 104.385 94.991 101.663 136.271 125.496 136.271 128.218" fill="#ccc"/><polygon points="136.271 133.417 94.991 109.584 94.991 106.862 136.271 130.695 136.271 133.417" fill="#ccc"/><polygon points="136.271 139.011 94.991 115.178 94.991 112.456 136.271 136.289 136.271 139.011" fill="#ccc"/><polygon points="136.271 144.21 94.991 120.377 94.991 117.654 136.271 141.487 136.271 144.21" fill="#ccc"/><polygon points="136.271 148.63 94.991 124.797 94.991 122.074 136.271 145.907 136.271 148.63" fill="#ccc"/><polygon points="123.108 146.229 94.991 129.996 94.991 127.273 123.108 143.507 123.108 146.229" fill="#ccc"/><polygon points="88.524 82.438 47.244 106.271 47.244 103.549 88.524 79.716 88.524 82.438" fill="#dadada"/><polygon points="88.524 87.637 47.244 111.47 47.244 108.748 88.524 84.915 88.524 87.637" fill="#dadada"/><polygon points="88.524 93.231 47.244 117.064 47.244 114.341 88.524 90.508 88.524 93.231" fill="#dadada"/><polygon points="88.524 98.429 47.244 122.262 47.244 119.54 88.524 95.707 88.524 98.429" fill="#dadada"/><polygon points="88.524 104.58 47.244 128.413 47.244 125.69 88.524 101.857 88.524 104.58" fill="#dadada"/><polygon points="88.524 109.779 47.244 133.611 47.244 130.889 88.524 107.056 88.524 109.779" fill="#dadada"/><polygon points="88.524 115.372 47.244 139.205 47.244 136.483 88.524 112.65 88.524 115.372" fill="#dadada"/><polygon points="88.524 120.571 47.244 144.404 47.244 141.682 88.524 117.849 88.524 120.571" fill="#dadada"/><polygon points="88.524 124.991 47.244 148.824 47.244 146.102 88.524 122.269 88.524 124.991" fill="#dadada"/><polygon points="75.361 137.79 47.244 154.023 47.244 151.301 75.361 135.067 75.361 137.79" fill="#dadada"/></svg>