<?xml version="1.0" encoding="iso-8859-1"?>
<!-- Generator: Adobe Illustrator 21.0.0, SVG Export Plug-In . SVG Version: 6.00 Build 0)  -->
<svg version="1.1" id="Layer_1" xmlns="http://www.w3.org/2000/svg" xmlns:xlink="http://www.w3.org/1999/xlink" x="0px" y="0px"
	 viewBox="0 0 182 222" style="enable-background:new 0 0 182 222;" xml:space="preserve">
<title>hex-icon-edits</title>
<g>
	<path style="opacity:0.4;fill:#1D1D1B;enable-background:new    ;" d="M178.308,64.752L94.013,16.085
		c-1.865-1.077-4.162-1.077-6.027,0L3.693,64.752c-1.865,1.076-3.013,3.066-3.013,5.219v97.335c0,2.153,1.148,4.143,3.013,5.219
		l84.294,48.667c1.865,1.077,4.162,1.077,6.027,0l84.295-48.667c1.864-1.077,3.012-3.066,3.012-5.219V69.971
		C181.321,67.818,180.172,65.829,178.308,64.752z"/>
	<g>
		<g>
			<defs>
				<path id="SVGID_1_" d="M178.308,64.752L94.013,16.085c-1.865-1.077-4.162-1.077-6.027,0L3.693,64.752
					c-1.865,1.076-3.013,3.066-3.013,5.219v97.335c0,2.153,1.148,4.143,3.013,5.219l84.294,48.667c1.865,1.077,4.162,1.077,6.027,0
					l84.295-48.667c1.864-1.077,3.012-3.066,3.012-5.219V69.971C181.321,67.818,180.172,65.829,178.308,64.752z"/>
			</defs>
			<clipPath id="SVGID_2_">
				<use xlink:href="#SVGID_1_"  style="overflow:visible;"/>
			</clipPath>
			<g style="clip-path:url(#SVGID_2_);">
				<g style="opacity:0.14;">
					<polygon points="91.183,257.868 237.596,173.336 90.966,88.931 -55.229,173.336 					"/>
				</g>
			</g>
		</g>
	</g>
	<g>
		<path style="fill:#DADADA;" d="M161.386,144.26L97.605,182.2c-4.186,2.195-9.137,2.204-13.331,0.025l-63.69-37.869
			c-2.144-1.275-3.026-3.017-2.659-4.683c-0.012-0.051-0.028-0.101-0.038-0.152c-0.034,0.199-0.047,0.399-0.043,0.599
			c-0.003,0.066-0.005,0.131-0.004,0.197c-0.002,0.059-0.003,0.118-0.002,0.177c-0.002,0.068-0.002,0.136,0,0.205
			c-0.001,0.053,0,0.106,0.002,0.16c-0.002,0.075,0.001,0.149,0.004,0.224c-0.001,0.03-0.001,0.06-0.001,0.089
			c-0.004,0.084-0.005,0.168-0.002,0.252c-0.001,0.046-0.001,0.092,0,0.138c-0.002,0.063-0.004,0.125-0.002,0.188
			c-0.002,0.061-0.002,0.122,0,0.184c-0.002,0.072,0,0.144,0.003,0.217c-0.001,0.05,0.002,0.1,0.003,0.15
			c-0.001,0.041-0.004,0.081-0.004,0.122c-0.004,0.098-0.003,0.196,0.002,0.294c0,0.02,0.001,0.04,0.001,0.06
			c-0.004,0.086-0.006,0.172-0.003,0.258c-0.001,0.053,0.001,0.106,0.002,0.16c-0.001,0.049-0.002,0.098-0.001,0.148
			c-0.003,0.08-0.002,0.16,0.001,0.241c-0.001,0.04,0,0.08,0.001,0.121c-0.003,0.07-0.004,0.139-0.002,0.208
			c-0.001,0.053-0.002,0.107,0,0.16c-0.002,0.06-0.003,0.121-0.002,0.181c-0.002,0.055-0.003,0.109-0.002,0.164
			c-0.002,0.069-0.003,0.138-0.001,0.208c-0.002,0.067,0.002,0.134,0.004,0.202c-0.001,0.036,0,0.071,0,0.107
			c-0.003,0.072-0.005,0.144-0.003,0.216c-0.002,0.075,0.001,0.149,0.004,0.223c-0.001,0.038,0,0.075,0.001,0.113
			c-0.002,0.06-0.005,0.12-0.003,0.179c-0.002,0.07-0.002,0.14,0,0.21c-0.002,0.063,0,0.126,0.002,0.189
			c-0.001,0.043-0.002,0.086-0.001,0.129c-0.003,0.079-0.003,0.158,0,0.237c-0.001,0.04-0.001,0.08,0,0.12
			c-0.003,0.065-0.005,0.131-0.004,0.196c-0.002,0.065-0.002,0.13,0,0.195c-0.002,0.065,0,0.129,0.002,0.193
			c-0.002,0.062,0.001,0.125,0.003,0.187c-0.001,0.039-0.002,0.077-0.001,0.115c-0.004,0.089-0.002,0.178,0.002,0.267
			c0,0.027-0.001,0.054-0.001,0.081c-0.003,0.074-0.006,0.147-0.004,0.221c-0.002,0.059-0.002,0.118,0,0.176
			c-0.002,0.059-0.001,0.119,0,0.178c-0.002,0.06-0.002,0.121,0,0.181c-0.002,0.075,0,0.149,0.004,0.224
			c-0.001,0.031-0.001,0.062,0,0.094c-0.003,0.073-0.005,0.146-0.003,0.22c-0.002,0.06-0.002,0.119,0,0.178
			c-0.002,0.076,0.001,0.152,0.004,0.227c0,0.027,0,0.054,0,0.082c-0.003,0.075-0.006,0.15-0.004,0.225
			c-0.002,0.06-0.002,0.119,0,0.179c-0.002,0.06-0.002,0.119,0,0.179c-0.002,0.072,0,0.144,0.003,0.216
			c-0.001,0.035-0.001,0.071,0,0.106c-0.003,0.07-0.005,0.14-0.003,0.211c-0.002,0.06-0.001,0.119,0,0.179
			c-0.002,0.06-0.002,0.12,0,0.181c-0.002,0.06-0.002,0.12,0,0.18c-0.002,0.059-0.002,0.118,0,0.178c-0.002,0.06-0.002,0.12,0,0.18
			c-0.002,0.059-0.002,0.119,0,0.178c-0.002,0.06-0.001,0.121,0,0.181c-0.001,0.056-0.001,0.111,0,0.167
			c-0.002,0.062-0.002,0.125-0.001,0.187c-0.002,0.06-0.002,0.119,0,0.179c-0.002,0.06-0.002,0.119,0,0.178
			c-0.002,0.06-0.002,0.119,0,0.179c-0.002,0.06-0.002,0.119,0,0.179c-0.002,0.078,0.001,0.156,0.004,0.234
			c0,0.03,0.001,0.061,0.002,0.091c-0.003,0.065-0.006,0.13-0.005,0.195c-0.002,0.065-0.003,0.129-0.001,0.194
			c-0.002,0.06-0.002,0.119,0,0.179c-0.002,0.06-0.002,0.12,0,0.18c-0.002,0.056-0.002,0.111-0.001,0.166
			c-0.002,0.072-0.001,0.144,0.001,0.217c-0.032,1.415,0.88,2.833,2.744,3.908l63.69,36.764c4.194,2.116,9.145,2.107,13.331-0.024
			l63.781-36.829c1.887-1.09,2.809-2.524,2.774-3.949c0.002-0.06,0.001-0.119,0-0.179c0.002-0.06,0.002-0.119,0-0.178
			c0.002-0.06,0.001-0.119,0-0.179c0.002-0.059,0.002-0.119,0-0.178c0.002-0.06,0.001-0.119,0-0.178c0.002-0.06,0.001-0.12,0-0.18
			c0.002-0.06,0.002-0.119,0-0.179c0.002-0.06,0.001-0.119,0-0.179c0.002-0.06,0.001-0.119,0-0.179c0.002-0.06,0.001-0.119,0-0.179
			c0.002-0.059,0.001-0.119,0-0.178c0.002-0.06,0.001-0.119,0-0.179c0.002-0.06,0.001-0.119,0-0.179c0.002-0.06,0.001-0.119,0-0.179
			c0.002-0.06,0.001-0.119,0-0.179c0.002-0.06,0.001-0.119,0-0.179c0.002-0.06,0.001-0.119,0-0.179c0.002-0.059,0.001-0.118,0-0.178
			c0.002-0.06,0.001-0.119,0-0.179c0.002-0.06,0.002-0.12,0-0.179c0.002-0.06,0.001-0.119,0-0.179c0.002-0.06,0.001-0.119,0-0.178
			c0.002-0.06,0.001-0.119,0-0.179c0.002-0.06,0.002-0.119,0-0.179c0.002-0.059,0.001-0.119,0-0.178c0.002-0.06,0.001-0.119,0-0.179
			c0.002-0.06,0.001-0.119,0-0.178c0.002-0.06,0.001-0.119,0-0.179c0.002-0.06,0.001-0.119,0-0.179c0.002-0.059,0.001-0.119,0-0.178
			c0.002-0.06,0.001-0.119,0-0.179c0.002-0.06,0.002-0.119,0-0.179c0.002-0.06,0.001-0.119,0-0.179c0.002-0.06,0.001-0.119,0-0.179
			c0.002-0.06,0.001-0.119,0-0.179c0.002-0.06,0.001-0.119,0-0.179c0.002-0.06,0.001-0.119,0-0.179c0.002-0.06,0.001-0.119,0-0.179
			c0.002-0.06,0.001-0.119,0-0.178c0.002-0.06,0.001-0.119,0-0.178c0.002-0.06,0.001-0.119,0-0.179c0.002-0.06,0.001-0.119,0-0.178
			c0.002-0.06,0.001-0.119,0-0.179c0.002-0.06,0.001-0.119,0-0.178c0.002-0.06,0.001-0.119,0-0.179c0.002-0.06,0.002-0.119,0-0.179
			c0.002-0.06,0.001-0.119,0-0.178c0.002-0.06,0.001-0.119,0-0.179c0.002-0.06,0.002-0.119,0-0.179c0.002-0.06,0.001-0.119,0-0.178
			c0.002-0.06,0.001-0.119,0-0.179c0.002-0.06,0.001-0.119,0-0.179c0.002-0.06,0.001-0.119,0-0.178c0.002-0.06,0.001-0.119,0-0.179
			c0.002-0.06,0.001-0.119,0-0.178c0.002-0.06,0.001-0.119,0-0.179c0.002-0.06,0.001-0.119,0-0.178c0.002-0.06,0.001-0.119,0-0.178
			c0.002-0.06,0.001-0.119,0-0.179c0.002-0.06,0.002-0.119,0-0.179c0.002-0.06,0.001-0.119,0-0.178c0.002-0.06,0.001-0.119,0-0.178
			c0.002-0.06,0.001-0.119,0-0.179c0.002-0.06,0.002-0.119,0-0.178c0.002-0.06,0.001-0.119,0-0.179c0.002-0.06,0.002-0.119,0-0.179
			c0.002-0.06,0.001-0.119,0-0.178c0.002-0.06,0.001-0.119,0-0.179c0.002-0.06,0.001-0.119,0-0.178c0.002-0.06,0.001-0.119,0-0.179
			c0.002-0.06,0.002-0.119,0-0.179c0.002-0.059,0.001-0.119,0-0.178c0.002-0.06,0.001-0.119,0-0.179c0.002-0.06,0.002-0.119,0-0.179
			c0.002-0.06,0.001-0.119,0-0.178c0.002-0.06,0.001-0.119,0-0.179c0.002-0.06,0.001-0.12,0-0.18c0.002-0.06,0.002-0.119,0-0.179
			c0.001-0.032,0.006-0.064,0.006-0.096C164.152,141.734,163.225,143.165,161.386,144.26z"/>
		<path style="fill:#DADADA;" d="M164.076,139.54c0.049,0.222,0.08,0.445,0.084,0.668c0.002-0.055,0-0.11-0.001-0.165
			c0.007-0.218-0.007-0.436-0.045-0.654C164.106,139.44,164.088,139.49,164.076,139.54z"/>
		<path style="fill:#FFFFFF;" d="M161.386,128.5l-63.785,36.824c-4.186,2.131-9.137,2.14-13.331,0.024l-63.69-36.764
			c-1.805-1.042-2.718-2.406-2.744-3.777c0,0.046,0.005,0.091,0.006,0.136c-0.001,0.039-0.003,0.077-0.002,0.115
			c-0.003,0.079-0.004,0.158-0.002,0.237c-0.001,0.054,0,0.107,0.002,0.161c-0.002,0.06-0.002,0.12,0,0.18
			c-0.002,0.069,0,0.137,0.002,0.206c-0.001,0.055,0.001,0.11,0.003,0.165c-0.001,0.055,0,0.11,0.002,0.166
			c-0.001,0.045-0.004,0.091-0.004,0.136c-0.004,0.088-0.003,0.176,0,0.263c-0.001,0.044,0.002,0.088,0.003,0.132
			c-0.002,0.064-0.002,0.128,0,0.192c-0.001,0.041-0.004,0.082-0.004,0.123c-0.004,0.098-0.003,0.195,0.002,0.292
			c0,0.019,0.001,0.039,0.001,0.058c-0.004,0.077-0.007,0.155-0.005,0.232c-0.002,0.073,0.001,0.146,0.004,0.22
			c0,0.027-0.001,0.054-0.001,0.081c-0.004,0.092-0.004,0.184-0.001,0.276c-0.001,0.043,0.001,0.086,0.002,0.13
			c-0.002,0.069-0.002,0.137,0,0.206c-0.001,0.045-0.001,0.09,0,0.135c-0.003,0.065-0.005,0.131-0.003,0.196
			c-0.002,0.056-0.003,0.111-0.001,0.167c-0.002,0.076-0.001,0.152,0.002,0.228c-0.001,0.037-0.001,0.073,0,0.11
			c-0.003,0.08-0.002,0.161,0.001,0.241c-0.001,0.041-0.001,0.081,0,0.122c-0.003,0.084-0.002,0.168,0.001,0.252
			c-0.001,0.038,0,0.075,0.001,0.113c-0.002,0.06-0.005,0.121-0.003,0.181c-0.002,0.066-0.003,0.131-0.001,0.197
			c-0.002,0.06-0.002,0.12,0,0.18c-0.002,0.07,0,0.139,0.002,0.209c-0.001,0.051,0.001,0.101,0.003,0.152
			c-0.001,0.048-0.002,0.095-0.001,0.143c-0.003,0.065-0.006,0.13-0.004,0.195c-0.003,0.082-0.001,0.163,0.002,0.245
			c0,0.031,0.001,0.062,0.001,0.093c-0.003,0.085-0.003,0.169,0,0.254c-0.001,0.045,0.001,0.089,0.002,0.133
			c-0.002,0.072-0.002,0.144,0.001,0.216c-0.001,0.034-0.003,0.069-0.002,0.103c-0.003,0.074-0.006,0.148-0.004,0.222
			c-0.002,0.059-0.002,0.119,0,0.178c-0.002,0.06-0.001,0.119,0,0.179c-0.002,0.06-0.002,0.119,0,0.179
			c-0.002,0.071,0,0.141,0.003,0.212c-0.001,0.039-0.001,0.079,0,0.118c-0.003,0.069-0.004,0.137-0.002,0.206
			c-0.002,0.06-0.002,0.119,0,0.179c-0.002,0.065-0.001,0.129,0.001,0.194c-0.001,0.048-0.001,0.095,0,0.142
			c-0.002,0.066-0.004,0.133-0.002,0.199c-0.002,0.059-0.002,0.119,0,0.178c-0.002,0.06-0.002,0.119,0,0.179
			c-0.002,0.072,0,0.144,0.003,0.216c-0.001,0.035-0.001,0.071,0,0.106c-0.003,0.071-0.005,0.142-0.003,0.213
			c-0.002,0.06-0.002,0.119,0,0.179c-0.002,0.06-0.002,0.12,0,0.179c-0.002,0.06-0.002,0.119,0,0.179
			c-0.002,0.059-0.002,0.119,0,0.178c-0.002,0.06-0.002,0.119,0,0.179c-0.002,0.059-0.002,0.119,0,0.178
			c-0.002,0.061-0.001,0.122,0,0.183c-0.002,0.056-0.001,0.111,0,0.167c-0.002,0.062-0.002,0.123-0.001,0.185
			c-0.002,0.06-0.002,0.119,0,0.179c-0.002,0.059-0.002,0.119,0,0.178c-0.002,0.06-0.002,0.119,0,0.178
			c-0.002,0.06-0.002,0.119,0,0.179c-0.002,0.059-0.002,0.118,0,0.177c-0.002,0.055-0.002,0.11-0.001,0.165
			c-0.002,0.068-0.002,0.136,0,0.204c-0.001,0.056-0.001,0.112,0.001,0.167c-0.002,0.06-0.002,0.119,0,0.179
			c-0.002,0.061-0.001,0.121,0,0.181c-0.002,0.056-0.003,0.112-0.001,0.168c-0.007,0.226,0.007,0.452,0.048,0.677
			c0.009,0.051,0.026,0.101,0.038,0.152c-0.367,1.666,0.515,3.408,2.659,4.683l63.69,37.869c4.194,2.18,9.145,2.17,13.331-0.025
			l63.781-37.94c1.84-1.094,2.767-2.526,2.78-3.956c0-0.032-0.005-0.063-0.005-0.095c-0.004-0.224-0.035-0.446-0.084-0.668
			c0.011-0.05,0.03-0.1,0.039-0.151c0.038-0.213,0.05-0.427,0.045-0.64c0.002-0.059,0.001-0.118,0-0.178
			c0.002-0.06,0.001-0.119,0-0.179c0.002-0.06,0.002-0.12,0-0.179c0.002-0.06,0.001-0.119,0-0.178c0.002-0.06,0.001-0.119,0-0.178
			c0.002-0.06,0.001-0.12,0-0.179c0.002-0.06,0.002-0.119,0-0.178c0.002-0.059,0.001-0.119,0-0.178c0.002-0.06,0.001-0.119,0-0.179
			c0.002-0.06,0.001-0.119,0-0.179c0.002-0.06,0.001-0.119,0-0.178c0.002-0.06,0.001-0.119,0-0.178c0.002-0.06,0.001-0.119,0-0.179
			c0.002-0.06,0.001-0.119,0-0.179c0.002-0.059,0.002-0.118,0-0.178c0.002-0.06,0.001-0.119,0-0.179c0.002-0.06,0.002-0.119,0-0.179
			c0.002-0.06,0.001-0.119,0-0.179c0.002-0.06,0.001-0.119,0-0.178c0.002-0.06,0.001-0.12,0-0.18c0.002-0.06,0.002-0.119,0-0.179
			c0.002-0.059,0.001-0.118,0-0.178c0.002-0.06,0.001-0.119,0-0.179c0.002-0.06,0.002-0.119,0-0.179c0.002-0.06,0.001-0.119,0-0.178
			c0.002-0.06,0.002-0.119,0-0.179c0.002-0.06,0.001-0.119,0-0.178c0.002-0.06,0.001-0.119,0-0.179c0.002-0.059,0.001-0.118,0-0.178
			c0.002-0.06,0.001-0.119,0-0.179c0.002-0.06,0.002-0.12,0-0.179c0.002-0.059,0.001-0.119,0-0.178c0.002-0.06,0.001-0.119,0-0.179
			c0.002-0.06,0.001-0.12,0-0.179c0.002-0.06,0.002-0.119,0-0.179c0.002-0.059,0.001-0.119,0-0.178c0.002-0.06,0.001-0.119,0-0.179
			c0.002-0.06,0.002-0.119,0-0.179c0.002-0.06,0.001-0.119,0-0.178c0.002-0.06,0.001-0.119,0-0.179c0.002-0.06,0.002-0.119,0-0.179
			c0.002-0.06,0.001-0.119,0-0.178c0.002-0.059,0.001-0.118,0-0.178c0.002-0.06,0.001-0.119,0-0.179c0.002-0.06,0.001-0.12,0-0.18
			c0.002-0.06,0.001-0.119,0-0.178c0.002-0.06,0.001-0.119,0-0.179c0.002-0.06,0.001-0.119,0-0.179c0.002-0.06,0.002-0.119,0-0.178
			c0.002-0.059,0.001-0.119,0-0.178c0.002-0.06,0.001-0.119,0-0.179c0.002-0.06,0.001-0.119,0-0.179c0.002-0.06,0.001-0.119,0-0.179
			c0.002-0.06,0.001-0.119,0-0.179c0.002-0.06,0.001-0.119,0-0.179c0.002-0.06,0.001-0.119,0-0.179c0.002-0.06,0.001-0.119,0-0.179
			c0.002-0.06,0.001-0.119,0-0.178c0.002-0.06,0.001-0.119,0-0.179c0.002-0.06,0.001-0.119,0-0.178c0.002-0.06,0.001-0.119,0-0.179
			c0.002-0.06,0.001-0.12,0-0.179c0.002-0.06,0.002-0.119,0-0.179c0.002-0.059,0.001-0.118,0-0.178c0.002-0.06,0.001-0.119,0-0.179
			c0.002-0.06,0.002-0.119,0-0.179c0.002-0.06,0.001-0.119,0-0.179c0.002-0.06,0.001-0.119,0-0.179c0.002-0.06,0.001-0.119,0-0.179
			c0.002-0.06,0.001-0.119,0-0.179c0.002-0.06,0.002-0.119,0-0.178c0.002-0.06,0.001-0.119,0-0.178c0.002-0.06,0.001-0.119,0-0.179
			c0.002-0.059,0.001-0.119,0-0.178c0.002-0.06,0.001-0.119,0-0.179c0.002-0.06,0.001-0.119,0-0.179c0.002-0.06,0.002-0.119,0-0.179
			c0.002-0.059,0.001-0.119,0-0.178c0.001-0.044,0.004-0.087,0.004-0.13C164.137,126.068,163.212,127.445,161.386,128.5z"/>
		<path style="fill:#FFFFFF;" d="M164.163,124.599c0.001-0.03,0-0.059,0-0.089c0,0.014-0.003,0.028-0.004,0.042
			C164.16,124.567,164.163,124.583,164.163,124.599z"/>
		<path style="fill:#FFFFFF;" d="M17.839,124.643c0-0.015-0.003-0.03-0.004-0.045c-0.001,0.033-0.001,0.067-0.001,0.1
			C17.834,124.68,17.838,124.662,17.839,124.643z"/>
		<path style="fill:#159EC3;" d="M164.16,110.264c-0.044,1.365-0.965,2.726-2.774,3.77l-63.785,36.824
			c-4.186,2.131-9.137,2.14-13.331,0.024l-63.69-36.764c-1.775-1.025-2.683-2.36-2.738-3.707c-0.001,0.034,0,0.068,0,0.102
			c-0.003,0.067-0.006,0.134-0.004,0.2c-0.003,0.08,0,0.16,0.003,0.24c0,0.033,0.001,0.066,0.001,0.099
			c-0.003,0.069-0.004,0.137-0.002,0.206c-0.002,0.068,0,0.136,0.002,0.204c-0.001,0.055,0.001,0.11,0.003,0.165
			c-0.002,0.058-0.001,0.116,0,0.174c-0.001,0.049-0.003,0.098-0.002,0.147c-0.003,0.065-0.005,0.131-0.004,0.196
			c-0.003,0.078-0.001,0.156,0.003,0.234c-0.001,0.044,0.002,0.087,0.003,0.13c-0.002,0.061-0.002,0.122,0,0.183
			c-0.002,0.051-0.003,0.102-0.002,0.154c-0.003,0.068-0.004,0.135-0.002,0.203c-0.002,0.07,0,0.139,0.002,0.209
			c-0.001,0.049,0.001,0.098,0.003,0.148c-0.002,0.052-0.003,0.103-0.002,0.155c-0.002,0.063-0.005,0.125-0.003,0.188
			c-0.002,0.073-0.001,0.145,0.001,0.218c-0.001,0.057,0.001,0.114,0.003,0.171c-0.001,0.049-0.002,0.099-0.001,0.148
			c-0.002,0.063-0.003,0.125-0.002,0.188c-0.002,0.055-0.003,0.109-0.002,0.164c-0.002,0.069-0.003,0.137-0.001,0.205
			c-0.002,0.062,0.001,0.123,0.003,0.185c-0.001,0.048-0.001,0.096,0,0.144c-0.002,0.066-0.003,0.131-0.001,0.197
			c-0.002,0.066-0.001,0.132,0.002,0.199c-0.001,0.053,0,0.107,0.001,0.16c-0.002,0.065,0,0.129,0.002,0.194
			c-0.001,0.041-0.002,0.082-0.001,0.123c-0.003,0.082-0.003,0.165,0,0.247c-0.001,0.054,0.001,0.108,0.003,0.162
			c-0.001,0.052-0.001,0.103,0,0.155c-0.002,0.056-0.004,0.112-0.003,0.169c-0.002,0.066-0.004,0.131-0.002,0.197
			c-0.002,0.057-0.003,0.115-0.002,0.172c-0.003,0.078-0.001,0.156,0.003,0.235c-0.001,0.044,0.002,0.089,0.003,0.133
			c-0.002,0.065-0.002,0.131,0,0.196c-0.002,0.06,0,0.12,0.002,0.18c-0.001,0.038-0.004,0.076-0.003,0.115
			c-0.003,0.074-0.006,0.149-0.004,0.223c-0.002,0.06-0.002,0.119,0,0.178c-0.002,0.059-0.002,0.118,0,0.176
			c-0.002,0.06-0.001,0.119,0,0.178c-0.002,0.075,0,0.15,0.003,0.225c-0.001,0.031,0,0.063,0,0.094
			c-0.003,0.073-0.005,0.145-0.003,0.218c-0.002,0.06-0.002,0.12,0,0.181c-0.002,0.064-0.001,0.127,0.001,0.191
			c-0.001,0.051-0.001,0.102,0,0.153c-0.002,0.063-0.003,0.126-0.001,0.19c-0.002,0.06-0.002,0.119,0,0.179
			c-0.002,0.06-0.002,0.119,0,0.179c-0.002,0.072,0,0.144,0.003,0.216c-0.001,0.035-0.001,0.071,0,0.106
			c-0.003,0.077-0.004,0.154-0.002,0.231c-0.001,0.047-0.001,0.094,0,0.14c-0.002,0.066-0.003,0.131-0.001,0.197
			c-0.002,0.06-0.002,0.121,0,0.181c-0.002,0.059-0.002,0.119,0,0.178c-0.002,0.06-0.002,0.119,0,0.179
			c-0.002,0.06-0.002,0.12,0,0.18c-0.002,0.058-0.002,0.115-0.001,0.173c-0.002,0.063-0.002,0.126,0,0.189
			c-0.002,0.057-0.001,0.114,0.001,0.172c-0.002,0.06-0.002,0.119,0,0.179c-0.002,0.06-0.002,0.119,0,0.178
			c-0.002,0.06-0.002,0.119,0,0.179c-0.002,0.06-0.002,0.119,0,0.179c-0.002,0.078,0.001,0.156,0.005,0.234c0,0.023,0,0.045,0,0.068
			c-0.003,0.077-0.006,0.155-0.004,0.232c-0.002,0.06-0.002,0.121,0,0.181c-0.002,0.06-0.002,0.119,0,0.178
			c-0.002,0.059-0.002,0.119,0,0.178c-0.002,0.06-0.002,0.12,0,0.181c-0.001,0.04-0.005,0.08-0.005,0.12
			c0,0.015,0.003,0.03,0.004,0.045c-0.001,0.018-0.004,0.036-0.005,0.055c-0.001,0.036,0.001,0.073,0.002,0.109
			c0.026,1.37,0.939,2.734,2.744,3.777l63.69,36.764c4.194,2.116,9.145,2.107,13.331-0.024l63.785-36.824
			c1.827-1.055,2.751-2.432,2.778-3.811c0.001-0.03,0-0.06,0-0.09c0-0.016-0.003-0.032-0.004-0.048c0-0.014,0.003-0.028,0.004-0.042
			c0.001-0.046-0.003-0.091-0.004-0.137c0.002-0.06,0.001-0.119,0-0.179c0.002-0.06,0.002-0.119,0-0.179
			c0.002-0.06,0.001-0.119,0-0.178c0.002-0.06,0.001-0.119,0-0.179c0.002-0.06,0.001-0.119,0-0.179c0.002-0.06,0.001-0.119,0-0.179
			c0.002-0.06,0.001-0.119,0-0.179c0.002-0.06,0.002-0.119,0-0.179c0.002-0.06,0.001-0.119,0-0.178c0.002-0.06,0.001-0.119,0-0.178
			c0.002-0.06,0.001-0.119,0-0.179c0.002-0.06,0.001-0.119,0-0.179c0.002-0.06,0.001-0.119,0-0.178c0.002-0.059,0.001-0.119,0-0.178
			c0.002-0.06,0.001-0.119,0-0.179c0.002-0.06,0.002-0.119,0-0.179c0.002-0.06,0.001-0.119,0-0.179c0.002-0.06,0.001-0.119,0-0.178
			c0.002-0.06,0.001-0.119,0-0.179c0.002-0.06,0.001-0.119,0-0.178c0.002-0.06,0.001-0.119,0-0.179c0.002-0.06,0.002-0.119,0-0.179
			c0.002-0.06,0.001-0.119,0-0.178c0.002-0.06,0.001-0.119,0-0.179c0.002-0.06,0.001-0.119,0-0.178c0.002-0.06,0.001-0.119,0-0.179
			c0.002-0.06,0.001-0.119,0-0.178c0.002-0.06,0.001-0.119,0-0.178c0.002-0.06,0.001-0.119,0-0.179c0.002-0.06,0.002-0.119,0-0.179
			c0.002-0.06,0.001-0.119,0-0.179c0.002-0.06,0.001-0.119,0-0.178c0.002-0.06,0.001-0.12,0-0.18c0.002-0.06,0.002-0.119,0-0.179
			c0.002-0.059,0.001-0.119,0-0.178c0.002-0.06,0.001-0.119,0-0.179c0.002-0.06,0.001-0.119,0-0.178c0.002-0.06,0.001-0.119,0-0.179
			c0.002-0.06,0.002-0.119,0-0.179c0.002-0.06,0.001-0.119,0-0.178c0.002-0.06,0.001-0.119,0-0.179c0.002-0.059,0.001-0.119,0-0.178
			c0.002-0.06,0.001-0.119,0-0.179c0.002-0.06,0.002-0.119,0-0.179c0.002-0.06,0.001-0.119,0-0.178c0.002-0.06,0.001-0.119,0-0.179
			c0.002-0.06,0.001-0.12,0-0.18c0.002-0.06,0.002-0.119,0-0.179c0.002-0.059,0.001-0.119,0-0.178c0.002-0.06,0.001-0.119,0-0.178
			c0.002-0.06,0.001-0.119,0-0.178c0.002-0.06,0.001-0.119,0-0.178c0.002-0.06,0.001-0.119,0-0.179c0.002-0.06,0.002-0.119,0-0.179
			c0.002-0.06,0.001-0.119,0-0.178c0.002-0.059,0.001-0.119,0-0.178c0.002-0.06,0.001-0.119,0-0.179c0.002-0.06,0.001-0.119,0-0.179
			c0.002-0.06,0.001-0.119,0-0.179c0.002-0.06,0.001-0.119,0-0.179c0.002-0.06,0.001-0.12,0-0.18c0.002-0.06,0.002-0.119,0-0.178
			c0.002-0.059,0.001-0.119,0-0.178c0.002-0.06,0.002-0.119,0-0.179c0.002-0.06,0.001-0.119,0-0.178
			c0.002-0.059,0.001-0.119,0-0.178c0.002-0.06,0.001-0.119,0-0.179c0.002-0.06,0.001-0.119,0-0.179c0.002-0.06,0.002-0.119,0-0.178
			c0.002-0.059,0.001-0.119,0-0.178c0.002-0.06,0.001-0.119,0-0.179c0.002-0.06,0.002-0.119,0-0.179c0.002-0.06,0.001-0.119,0-0.179
			c0.002-0.06,0.001-0.119,0-0.178c0.002-0.06,0.001-0.12,0-0.18c0.002-0.06,0.002-0.119,0-0.179c0.002-0.059,0.001-0.119,0-0.178
			c0.002-0.06,0.001-0.119,0-0.179C164.162,110.382,164.161,110.323,164.16,110.264z"/>
		<path style="fill:#159EC3;" d="M96.296,99.613c0.037,0.212,0.076,0.425,0.076,0.647h0.005v0.46l0.006-1.131
			C96.354,99.597,96.325,99.605,96.296,99.613z"/>
		<path style="fill:#159EC3;" d="M79.944,128.43c0-0.067,0.009-0.133,0.009-0.2h-0.009c-0.001-0.071-0.001-0.143,0-0.214
			c0.002-0.239,0.026-0.473,0.042-0.709c-0.122,0.557-0.124,1.122,0.006,1.681C79.966,128.804,79.944,128.618,79.944,128.43z"/>
		<path style="fill:#17B9E6;" d="M20.58,114.118l63.69,36.764c4.194,2.116,9.145,2.107,13.331-0.024l63.785-36.824
			c1.809-1.044,2.73-2.405,2.774-3.77c0.046-1.42-0.859-2.845-2.729-3.925l-63.68-36.764c-4.191-2.117-9.141-2.108-13.325,0.024
			l-12.082,6.979c2.982,1.746,8.247,4.839,8.439,4.949c0.15,0.141,3.649,2.085,3.864,2.208c0.102,0.058,0.204,0.116,0.305,0.175
			c1.859-1.265,4.105-2,6.524-1.978c6.311,0.059,11.378,5.222,11.319,11.532v0.001h-0.008c0.004,0.066,0.009,0.133,0.009,0.2
			c0,0.16-0.022,0.317-0.041,0.474c1.008,0.61,3.065,1.875,3.141,1.931c0.215,0.123,0.429,0.245,0.644,0.368
			c0.317,0.196,2.039,1.165,2.254,1.288c0.194,0.16,0.429,0.245,0.644,0.368c0.215,0.123,0.429,0.245,0.644,0.368
			c0.215,0.123,0.429,0.245,0.644,0.368c0.41,0.275,0.861,0.492,1.288,0.737c0.42,0.265,0.857,0.491,1.288,0.737
			c0.218,0.118,0.429,0.245,0.644,0.368c0.215,0.123,0.429,0.245,0.644,0.368c0.274,0.155,0.548,0.313,0.821,0.47
			c1.88-1.311,4.164-2.079,6.631-2.056c6.311,0.059,11.378,5.222,11.319,11.532v0.001h-0.008c0.004,0.066,0.009,0.133,0.009,0.2
			c0,3.647-5.116,6.6-11.426,6.6c-6.31,0-11.426-2.957-11.426-6.6c0-0.067,0.009-0.133,0.009-0.2h-0.009
			c-0.001-0.071-0.001-0.143,0-0.214c0.009-0.956,0.148-1.878,0.377-2.763l-14.373-8.457c-0.043,0.013-0.087,0.024-0.131,0.036
			l-0.006,1.131v17.144c3.832,1.874,6.461,5.815,6.418,10.365v0.001h-0.008c0.004,0.066,0.009,0.133,0.009,0.2
			c0,3.647-5.116,6.6-11.426,6.6c-5.983,0-10.885-2.66-11.377-6.041c-0.13-0.559-0.129-1.124-0.006-1.681
			c0.296-4.17,2.816-7.706,6.381-9.447v-17.592c0-0.003-0.001-0.006-0.001-0.009c0-0.222,0.038-0.435,0.076-0.648
			c-3.84-1.064-6.498-3.325-6.498-5.947c0-0.067,0.009-0.133,0.009-0.2h-0.009c-0.001-0.071-0.001-0.143,0-0.214
			c0.009-0.992,0.158-1.947,0.404-2.863l-15.851-9.326c0-0.001,0-0.003,0.001-0.004l-43.897,25.365
			c-1.905,1.101-2.818,2.551-2.759,3.988C17.897,111.758,18.805,113.093,20.58,114.118z"/>
		<path style="fill:#CCCCCC;" d="M80.347,90.388c0.719-2.677,2.376-4.962,4.605-6.479c-0.102-0.058-0.204-0.116-0.305-0.175
			c-0.215-0.123-3.714-2.067-3.864-2.208c-0.191-0.109-5.457-3.203-8.439-4.949c-1.163-0.681-1.978-1.156-2.01-1.17
			c-0.787-0.47-1.781-0.416-2.512,0.137c-1.893,1.233-3.116,3.264-3.324,5.513c0,0.001,0,0.003-0.001,0.004L80.347,90.388z"/>
		<path style="fill:#F4F4F4;" d="M80.347,90.388c-0.246,0.915-0.394,1.871-0.404,2.863c-0.001,0.071-0.001,0.143,0,0.214h0.009
			c0,0.067-0.009,0.133-0.009,0.2c0,2.623,2.658,4.883,6.498,5.947c0.366-2.068,2.422-3.657,4.927-3.657
			c2.506,0,4.562,1.59,4.927,3.658c0.029-0.008,0.058-0.016,0.087-0.024c0.044-0.012,0.088-0.024,0.131-0.036l-0.142-0.084
			c0.207-2.251,1.431-4.283,3.325-5.517c0.731-0.553,1.725-0.607,2.512-0.137c0.027,0.011,0.24,0.139,0.546,0.324
			c0.019-0.157,0.041-0.314,0.041-0.474c0-0.067-0.005-0.134-0.009-0.2h0.008v-0.001c0.059-6.31-5.008-11.473-11.319-11.532
			c-2.419-0.023-4.665,0.713-6.524,1.978C82.723,85.426,81.067,87.712,80.347,90.388z"/>
		<path style="fill:#CCCCCC;" d="M102.209,93.815c-0.787-0.47-1.781-0.416-2.512,0.137c-1.894,1.234-3.118,3.266-3.325,5.517
			l0.142,0.084l14.373,8.457c0.693-2.675,2.323-4.964,4.524-6.5c-0.274-0.157-0.547-0.315-0.821-0.47
			c-0.215-0.123-0.429-0.245-0.644-0.368c-0.215-0.123-0.426-0.25-0.644-0.368c-0.431-0.246-0.868-0.472-1.288-0.737
			c-0.427-0.245-0.878-0.462-1.288-0.737c-0.215-0.123-0.429-0.245-0.644-0.368c-0.215-0.123-0.429-0.245-0.644-0.368
			c-0.215-0.123-0.45-0.208-0.644-0.368c-0.215-0.123-1.937-1.092-2.254-1.288c-0.215-0.123-0.429-0.245-0.644-0.368
			c-0.077-0.057-2.134-1.322-3.141-1.931C102.448,93.954,102.235,93.826,102.209,93.815z"/>
		<path style="fill:#F4F4F4;" d="M110.887,108.01c-0.229,0.885-0.368,1.807-0.377,2.763c-0.001,0.071-0.001,0.143,0,0.214h0.009
			c0,0.067-0.009,0.133-0.009,0.2c0,3.643,5.116,6.6,11.426,6.6c6.31,0,11.426-2.953,11.426-6.6c0-0.067-0.005-0.134-0.009-0.2
			h0.008v-0.001c0.059-6.31-5.008-11.473-11.319-11.532c-2.466-0.023-4.751,0.745-6.631,2.056
			C113.21,103.045,111.58,105.334,110.887,108.01z"/>
		<path style="fill:#CCCCCC;" d="M96.377,100.26h-0.005c0-0.221-0.038-0.434-0.076-0.647c-0.365-2.068-2.422-3.658-4.927-3.658
			c-2.505,0-4.562,1.589-4.927,3.657c-0.038,0.213-0.076,0.426-0.076,0.648c0,0.003,0.001,0.006,0.001,0.009v17.592
			c1.543-0.754,3.275-1.181,5.109-1.164c1.761,0.016,3.418,0.442,4.901,1.167V100.72V100.26z"/>
		<path style="fill:#F4F4F4;" d="M91.476,116.697c-1.834-0.017-3.566,0.41-5.109,1.164c-3.564,1.741-6.085,5.277-6.381,9.447
			c-0.017,0.236-0.04,0.469-0.042,0.709c-0.001,0.071-0.001,0.143,0,0.214h0.009c0,0.067-0.009,0.133-0.009,0.2
			c0,0.189,0.022,0.374,0.049,0.559c0.492,3.381,5.394,6.041,11.377,6.041c6.31,0,11.426-2.953,11.426-6.6
			c0-0.067-0.005-0.134-0.009-0.2h0.008v-0.001c0.043-4.549-2.586-8.491-6.418-10.365C94.894,117.139,93.237,116.713,91.476,116.697
			z"/>
	</g>
</g>
</svg>
