<svg id="Layer_1" data-name="Layer 1" xmlns="http://www.w3.org/2000/svg" viewBox="0 0 128 128"><title>Develop-icons</title><circle cx="60.174" cy="64" r="46.174" fill="#f6f6f6"/><path d="M73.513,20.513c-.384-.384-.864-.3-1.407-.352-1.391-.144-2.927-.736-4.286-.944-.048.016-.112,0-.112.064a5.242,5.242,0,0,0,2.287.528C71.178,19.953,72.314,20.688,73.513,20.513Zm17.257,16.57c-.048.016-.064.048-.064.112.288.384.592.848.944,1.232.3.352.672,1.008,1.168.944C92.5,38.282,91.858,37.21,90.771,37.082Zm-5.518-1.12a16.18,16.18,0,0,1-.7-1.871,3.152,3.152,0,0,0-.992.464,3.329,3.329,0,0,1-.464,1.471C83.606,36.522,84.885,36.81,85.253,35.963ZM64.461,32.668a14.582,14.582,0,0,0-1.823-.064c-.128.112-.128.336-.288.416-1.5-.288-1.9.768-2.879,1.168.08.8.816.96,1.471,1.168.192-.224.544-.272.592-.64.016-.208-.288-.368-.112-.528.208.4.464-.144.768-.176.064.48-.448.832-.416,1.471-.464-.016-.544.368-.64.7.144.272.512.32.816.416-.272.016-.448.144-.7.176-.624-.224-2.127-1.327-2.415-.416.016.08.288-.048.464,0,.256.432.48.9.7,1.343.544-.272.944.032,1.3.112,1.072.272,1.551-.416,2.415-.112a.764.764,0,0,0-.064-.7c-.592.192-.672-.416-.992-.464.24-.176.88.24,1.232-.112A1.232,1.232,0,0,0,64,35.435a1.4,1.4,0,0,1,1.168-.64c.608-.592.464-1.631.768-2.463C65.42,32.636,64.829,32.076,64.461,32.668Zm-5.694,6.11c.208.032.176.288.288.416.56-.128.7-.672,1.056-.992-.208-.112-.16-.464-.416-.528-.192.32-.8.224-.992.528C58.8,38.41,58.719,38.65,58.767,38.778Zm0-19.673c0,.528,1.487.512,1.759.064A4.983,4.983,0,0,0,58.767,19.105Zm8.221,14.331c-.128.528-.576.72-.768,1.168-.288-.1-.4.08-.64.176a.408.408,0,0,1-.064.464,5.341,5.341,0,0,0,2.991.816c.192-.08.224-.32.464-.352,1.663.112,2.287,1.28,3.343,2,.3.048.384-.128.64-.112a.511.511,0,0,1,.112.464c-.064.128-.4,0-.352.24.112.64,1.455.08,1.519.768-.048.192-.224.24-.24.464a4.438,4.438,0,0,0,2.639,2.639c1.056.5,1.471,1.3,2.767,1.3a1.645,1.645,0,0,0,1.168-1.3c-.3-1.04-1.264-1.439-1.3-2.767.192-.16.384-.32.592-.464a4.757,4.757,0,0,1,.176-.88c-.592-1.232.448-2.111.88-2.879a2.651,2.651,0,0,0-.816-1.232c-.176-.208-.16-.384-.352-.528-.1-.08-.272-.064-.416-.176-.592-.464-.976-1.264-1.407-1.647-.3-.256-.832-.48-1.168-.768-.32-.256-.4-.608-.768-.64-.272-.064-.224.16-.464.112a14.738,14.738,0,0,1-1.168-1.871c-.24.048-.272-.112-.464-.112.048.5-1.072.288-1.056.944a8.464,8.464,0,0,0-1.471-.112,3.222,3.222,0,0,1-2.063,1.471c-.048.24.064.336.064.528a.832.832,0,0,1-.464.112c-.1.736-1.008.624-1.343,1.12.048.3.208.5.24.816C67.532,33.276,67.388,33.484,66.988,33.436Zm31.54,8.4c-.368-.784-1.008-1.375-1.3-2.063-.352-.848-.256-1.583-.7-2.239.32.176.5-.112.88-.064.192-.48-.24-.928-.592-1.343.032.144-.352.08-.352.352a1.715,1.715,0,0,1-.88-1.056c.224.016.208-.208.288-.352.448.064.64.576.912.8a45.09,45.09,0,0,0-3.727-4.27c-.944-.88-1.839-1.743-2.751-2.575a46.545,46.545,0,0,0-8.717-5.934c-.544-.256-1.088-.512-1.647-.752-1.3-.592-2.591-1.184-3.935-1.711A45.653,45.653,0,0,0,65.133,18.1c-6.925-.5-13.883.352-18.841,2.367a46.862,46.862,0,0,0-8.685,4.11,10.047,10.047,0,0,1,1.887-.992c-1.12.88-2.207,1.791-3.231,2.767.08.032.3-.064.288.064-.464.432-1.184.912-1.056,1.583-.416.064-.512-.432-.88-.464a3.115,3.115,0,0,0-1.3.528c-.752.432-1.6.736-1.871,1.407,1.1.288,1.823-.8,2.991-.352a4.658,4.658,0,0,0-.112,1.3c.368.128.3.368.352.768a5.435,5.435,0,0,1,1.823-.592c-.1.848.08,1.439.592,1.7a10.779,10.779,0,0,1,1.232-1.935c.224-.32.32-.688.528-1.056.32-.576,1.2-1.312.528-2.047.992-.576,1.439-1.7,2.527-2.175,0-.16-.016-.336.064-.416.3-.112.64-.192.7-.528.592-.464,1.375-.64,1.935-1.168.112-.112.176-.256.288-.352.288-.224.7-.352,1.056-.592.336-.224.608-.56.944-.768a21.571,21.571,0,0,1,3.759-1.3,25.429,25.429,0,0,1,4-.944c-.048.048-.416.1-.24.176a11.2,11.2,0,0,1,1.471-.064c.72-.064,1.391-.432,2.111-.528.688-.1,1.519.064,2.287,0a18.3,18.3,0,0,1,3.759-.176c.144.016-.128.112.112.112,1.056.016,2.031.144,2.943.176.224,0,.192.272.416.288a10.959,10.959,0,0,1,4.11.7,29.641,29.641,0,0,1,3.583,1.12c.576.224,1.264.416,1.7.64.208.112.32.336.528.416.32.128.688.064.992.176.48.176.9.56,1.343.768.576.272,1.343.336,1.7.944-1.375.128-1.615-1.359-3.119-1.3.16.512,1.264,1.12.88,1.823a10.707,10.707,0,0,0,2.639,1.935c.3.624.9.72,1.471,1.12.3.208.528.576.816.768a11.316,11.316,0,0,1,1.519.816c.464.432.624,1.136,1.056,1.647A6.009,6.009,0,0,0,88.9,31.98c.032-.272-.08-.7.064-.88a4.792,4.792,0,0,1,1.343.24,8.418,8.418,0,0,0-2.943-2.767c-1.711-.4-2.623-1.919-3.823-2.639,1.168.256,1.535,1.312,2.7,1.583.208.1.032-.192.176-.176,1.983,1.3,4.238,2.623,4.814,5.1-.448-.336-.992-.9-1.7-.768.64.56,1.423.96,2.063,1.519,0,.16-.016.336.064.416a5.686,5.686,0,0,1,.816,1.343c.608.96,1.615,1.791,1.823,2.879a4.649,4.649,0,0,0,.288,1.647c2.047.3,2.623,2.383,2.063,4.286.9,1.056,1.487,2.431,2.4,3.471.144-.432.528-.448.64-.816a2.7,2.7,0,0,0,0-.88A8.263,8.263,0,0,0,98.528,41.832ZM96.465,84.3a10.122,10.122,0,0,0-2.351-.24c-.7.128-1.248.848-1.759.992-.192-.064-.176-.32-.464-.288-1.008.3-2.159.048-3.055.592.1-1.248-.56-2.767-1.935-2.7-.864.048-1.519.752-2.463.768a1.921,1.921,0,0,0-.064-.7h-.816a6.281,6.281,0,0,0-2.991-1.407,3.671,3.671,0,0,1-2,.416,10.427,10.427,0,0,0-4.35.416c.112-.208.192-.576,0-.768-1.5.752-3.087,1.407-3.871,2.879-.768.048-1.359-.288-2.047-.176-.288.048-.528.336-.816.352-.832.048-1.455-.544-2.239-.768a4.388,4.388,0,0,0-.288-3.519,11.6,11.6,0,0,0-3.871-.352,12.793,12.793,0,0,1,1.407-3.295,2.859,2.859,0,0,0-2.527-.112c-.768.32-1.391,1.152-2.111,1.3a8.6,8.6,0,0,1-2.767-.352c-.1-.5.064-.816-.064-1.3-.112-.416-.56-.72-.592-1.12-.032-.336.224-.64.288-.944a14.872,14.872,0,0,0,.352-2.991c.352-.3.624-.768,1.056-.88,1.264-.32,1.759.416,2.591.464a2.883,2.883,0,0,0,1.168-.176c.272-.112.448-.48.816-.592a11.894,11.894,0,0,1,2.815-.24c.688-.032.864.112,1.056.848.256.944.976,1.423,1.168,2.383.064.3.848-.384.9-.464a2.553,2.553,0,0,0,.288-1.807,10.269,10.269,0,0,0-.528-1.024c-.144-.368-.1-.736-.256-1.088.544-1.024,1.791-1.248,2.527-2.063a7.379,7.379,0,0,0,.7-.992,10.486,10.486,0,0,0,.816-1.871c.208-.736-.128-1.471.24-2.351A13.325,13.325,0,0,0,72.842,60a1.032,1.032,0,0,1-.352-.528,4.787,4.787,0,0,1,.88-1.12c.176-1.136.336-2.287.528-3.407a4.024,4.024,0,0,1,1.232-.464c-.016-.208-.24-.24-.176-.528-.448,0-1.359.016-1.519-.464.8-1.072,2.783-.592,3.759-1.471a2.106,2.106,0,0,1,.352-.816c.176.144.32.016.416.176a3.658,3.658,0,0,0-.24,1.823c.64-.448,1.471-.688,2.063-1.168a.158.158,0,0,0,.112.112c.032-.224-.368-.192-.64-.24a10.024,10.024,0,0,1-1.343-2.527c-1.184-.864-2.943-1.024-4.11-1.871-.544-.4-.7-1.1-1.343-1.232-.32.336-.368.928-.768,1.168a6.037,6.037,0,0,1-1.232-.064A5.766,5.766,0,0,0,68.987,45.1a4,4,0,0,0-2.879.288c-.032,1.775-.032,3.519.992,4.222-.272.576-1.008.864-1.056,1.647-.032.608.736,1.791-.176,2.175A2.7,2.7,0,0,1,64.813,50.9a16.506,16.506,0,0,1-1.823-.64,8.976,8.976,0,0,0-1.759-.7c-.64-.08-1.343.208-1.935-.24-.288-.624-.848-.944-.88-1.7-.048-1.248,1.3-1.823,1.759-2.7.768-.1,1.3-.736,1.7-.992a1.158,1.158,0,0,0,.768,1.407c.32-.176.464-.512.7-.768a2.069,2.069,0,0,0,.992.288v-.528a4.384,4.384,0,0,1-2.111-1.343c.832-.352,2.255-.72,1.471-2,.224.016.3-.5.592-.592.8.656,2.383.512,3.119,1.232-.08.48-.272.864-.352,1.343-.512.144-.88.448-1.407.592.032.272-.1.384-.112.592.56-.064,1.12-.144,1.647-.24a9.179,9.179,0,0,0,2.815,1.343,2.106,2.106,0,0,1,.816-.352c.064-.624.7-.848.528-1.519-.592-.288-1.28-.48-1.519-1.12.768-.048,1.2.32,1.871.064,0-.336-.112-.56-.112-.88a3.2,3.2,0,0,0-1.935-.7A5.529,5.529,0,0,0,67.4,39.337a.534.534,0,0,1-.592.24c-.56-.432-.848-1.152-1.519-1.407a23.413,23.413,0,0,0-2.415-.352c-.256.208-.3.64-.464.944a1.285,1.285,0,0,0-.464-.64,6.49,6.49,0,0,1-.816.064,2.171,2.171,0,0,0-.112,2.463,9.634,9.634,0,0,0,1.823.24,3.784,3.784,0,0,1-1.12.944c-.368-.176-.656-.56-1.12-.464A15.322,15.322,0,0,1,58.959,39.5c-.384.368-.384,1.391.176,1.583-.112.24.1.608-.064.88-.272-.192-.384.256-.592.112.112-.448.192-1.024-.112-1.3-.848.032-1.216.544-1.7.944-1.232-.144-2.047-.592-3.055,0-.224-.192-.592-.224-.592-.64,1.072.112,2.575.368,3.295-.416-.352.064-.368-.624-.64-.816a12.558,12.558,0,0,0-.112-1.407c-.368-.16-.528-.624-1.056-.64-.192,0-.4.16-.592.176a1.565,1.565,0,0,1-1.647-.816,1.073,1.073,0,0,0,.112-.528,1.752,1.752,0,0,0-1.12-.064c-.32-.208-.5-.56-.88-.7a17.872,17.872,0,0,0-1.407,1.871c.336.528,1.327.08,1.871.416.272-.256.448-.608.816-.768.112.352-.32.448-.416.88-.1.5.32,1.248-.112,1.647-.832-.64-2.287-.64-2.879-1.519-.1-.016-.288.16-.352,0-.08-.192.144-.352,0-.416-.752.464-1.3-.288-2.287-.112a3.181,3.181,0,0,0-1.168-.64,1.922,1.922,0,0,0-.816-1.583c-.88-.576-1.871-.512-1.056-1.7a1.233,1.233,0,0,1-.416-1.056A5.861,5.861,0,0,0,39.4,32.6a2.03,2.03,0,0,1-2.351.944,7.149,7.149,0,0,0-.112.88,3.4,3.4,0,0,1,.416.416c-.288.032-.288.336-.528.416-.24-.032-.336-.208-.592-.24-.992.176-1.12.528-1.647,1.343a8.4,8.4,0,0,0-.816,2.351c.144.032.432-.08.464.064a2.219,2.219,0,0,1-2.239.288,1.813,1.813,0,0,0,.88,1.056,2.045,2.045,0,0,1,1.935-.112c-.432.352.3.56-.112.944.4-.064.512-.432.592-.816.48-.192.768-1.04,1.343-.768-.08.352-.416.7-.416.944.544.256.944-.048,1.407-.176a2.137,2.137,0,0,0-.176.592.818.818,0,0,1,.464.064c.528,1.264,1.839,1.759,1.823,3.583.192-.016.352,0,.416.112.64,1.439.048,3.711.416,5.23-.864.608-.128,1.248.064,1.823.4,1.264-.256,2.447-.64,3.407-.208.512-.576.96-.768,1.471a3.852,3.852,0,0,0-.064,1.423,21.425,21.425,0,0,0,.176,3.5c.048.24.08.5.112.736.016.176-.048.5-.032.608.048.384.48.528.7.784.224.24.368.592.576.848a6.119,6.119,0,0,1,.816.992,7.078,7.078,0,0,1,.24,1.839c.064.336.256.336.336.576.08.224-.064.384-.048.608a1.785,1.785,0,0,0,.288.672,8.769,8.769,0,0,0,.368.9c.144.24.4.352.544.56.368.544.5,1.248.912,1.823.4.544.784,1.136,1.407,1.12.016-.256.288-1.312-.048-1.471a4.639,4.639,0,0,1-1.6-1.775,6.081,6.081,0,0,1-.688-1.2c-.176-.688.352-1.551.112-2.143.352.064.336.432.4.7.24.944.512,1.855.768,2.7a5.19,5.19,0,0,1,2.239,1.935,10.363,10.363,0,0,1,.992,1.407,14.99,14.99,0,0,1,.464,2.111c.24.7.976,1.168,1.168,1.823a18.951,18.951,0,0,1,5.166,2.527c1.28-.768,2.159.192,3.055.7,1.759,1.008,4.766.672,5.342,2.591a.6.6,0,0,1,.464.352c.064.24-.128.224-.112.416a2.988,2.988,0,0,1,1.647,1.168,5.076,5.076,0,0,0,3.471-.064c.256.416.9.432,1.168.816a2.8,2.8,0,0,1-.064,1.232,13.5,13.5,0,0,1-1.168,1.935c-.352.384-.864.608-1.056,1.056a2.763,2.763,0,0,0,.064,1.935c-.9.368-.432,1.471-.112,2.175a8.643,8.643,0,0,1,1.232.528c.384,1.5,1.759,2,2.063,3.583,1.1.448,2.335-.3,3.295.416.032.224.144.368.176.592a3.935,3.935,0,0,0-.768,1.647c-1.359,1.423-1.583,3.966-3.823,4.526a6.011,6.011,0,0,1-.528,1.12c.1.016.224-.016.24.064-.544.464-2,.3-2.063,1.056.672.24,1.583-.192,2.415-.176.144-.08-.112-.192.112-.176A37.283,37.283,0,0,0,75.8,104.88c.816-.288,1.487-.4,2.239-.7.7-.3,1.088-.88,1.7-1.232.4-.24.816-.368,1.232-.64,1.487-1.008,3.279-1.791,4.35-3.119a2.787,2.787,0,0,1,1.168-1.471c2.031-1.551,4.494-3.087,5.87-5.23.5-.768.56-1.7,1.056-2.7.864-1.711,2.831-2.831,3.407-4.99C96.721,84.648,96.625,84.36,96.465,84.3ZM67.58,58.978c.224.016.272.192.528.176.08-.048.08-.192.112-.288h.24c.144.176.048.24.064.528a2.033,2.033,0,0,1-.88.24A.673.673,0,0,1,67.58,58.978Zm-1.791-.864a1.076,1.076,0,0,1,.192.88,2.159,2.159,0,0,1-1.312-.016c.272-.608-.56-1.3-1.056-1.519.432-.64.688-.4,1.2-.064A4.54,4.54,0,0,1,65.788,58.114Zm-3.6,2.575a1.911,1.911,0,0,0-.256.752c-1.008.144-1.1-.72-.848-1.471.112-.32,1.5-2.223,1.5-2.223.176.128.352.064.464.112a5.033,5.033,0,0,1-.384,1.935C62.542,60.1,62.35,60.385,62.19,60.689Zm.688-4.814a3.4,3.4,0,0,1,.592,1.056c-1.312.016-2.239.32-3.519.24-.048-.176-.288-.192-.288-.416C60.75,56.4,61.486,55.235,62.877,55.875ZM99.6,40.025a8.134,8.134,0,0,0-.5-.72C99.28,39.545,99.44,39.785,99.6,40.025Zm6.27,20.776c-.224-2.1-.432-4.094-.7-6.11-.112-.752-.16-1.551-.272-2.287-.176-.7-.384-1.391-.592-2.079-.272-.688-.592-1.391-.832-2.1-.256-.72-.5-1.487-.736-2.207a45.271,45.271,0,0,0-2.479-4.99c-.224-.352-.432-.688-.64-1.008a10.456,10.456,0,0,1,.928,2.047c-.368-.32-.752-1.248-1.12-1.168.336,1.807.7,3.6.992,5.454-.1.208-.464.128-.464.416a13.742,13.742,0,0,1,.7,3.471,7.583,7.583,0,0,1,1.168,3.167c.032.784-.208,1.551-.24,2.287a16.518,16.518,0,0,0,.112,2.815c.208,1.455,1.04,2.831,1.232,4.35.064.56-.1,1.024,0,1.519.128.608.56,1.232.464,1.935.24.1.592.064.816.176a3.572,3.572,0,0,1,.352,1.168c.24.08.464.208.7.288.192-1.423.912-2.735.944-4.174A25.292,25.292,0,0,0,105.869,60.8ZM98.7,39.785c-.32-.256-.288-.88-.768-.992C98.112,39.161,98.336,39.785,98.7,39.785ZM93.938,38.73a7.075,7.075,0,0,0-.944-2.815,2.631,2.631,0,0,0-1.343-.24c-.832-.432-1.647-.912-2.527-1.3-.032.144-.192.16-.24.288A7.8,7.8,0,0,0,89.939,35.9a.558.558,0,0,1,.464-.288,10.407,10.407,0,0,1,3.343,3.231C93.794,38.762,93.842,38.714,93.938,38.73ZM70.746,76.6c.288-.24.336-.72.816-.768-.4-.16-.784-.672-1.3-.768a9.006,9.006,0,0,0-1.3.064c-1.391-.064-2.863-1.04-4.11-.528-.08.192-.16.4-.24.592a24.556,24.556,0,0,1,3.119.7c.576.224,1.216.88,1.759.88C69.963,76.779,70.283,76.235,70.746,76.6ZM34.408,35.787c-.08.16-.3.16-.288.416C34.232,36.123,34.52,35.915,34.408,35.787ZM77.1,76.3c-.08.672.352.8.816.768.048-.336.288-.5.416-.768C77.928,75.979,77.544,76.139,77.1,76.3ZM39.046,48.23c.24-.032.336-.208.528-.288-.1-.416.064-.448.24-.7-.4.208-.16-.272-.464-.288-.016.08-.128.064-.176.112C39.334,47.558,38.951,47.67,39.046,48.23Zm1.935-19.673c-.224.048-.48.064-.592.24a.317.317,0,0,1,.176.176C40.79,28.925,40.886,28.749,40.982,28.557ZM77.8,77.595a.276.276,0,0,1,.288-.112c-.016-.064.016-.16-.064-.176C78.008,77.419,77.56,77.419,77.8,77.595Zm-8.989,0v.592a1.068,1.068,0,0,0,1.471-.64A2.3,2.3,0,0,0,68.811,77.595Zm3.471-.992c.08.192.224.336.288.528,1.312.56,2.431.1,3.695-.24.048-.368-.192-.448-.176-.768-1.12-.1-2.1-.16-3.407-.24C72.618,76.187,72.362,76.315,72.282,76.6ZM46.324,22.576c-.208-.032-.3.048-.352.176C46.132,22.768,46.468,22.48,46.324,22.576ZM75.1,23.983c-.464-.064-.768-.288-1.232-.352.016.24.176.336.176.592a7.131,7.131,0,0,0,.88.176c-.1.192-.3.272-.416.464a1.846,1.846,0,0,0,2.591.352,3.356,3.356,0,0,0-1.935-.88C75.049,24.239,75.241,24.111,75.1,23.983ZM58.479,19.057c-.224-.176-.592.032-.816.064-.192-.048-.448.064-.112.064C57.791,19.233,58.415,19.457,58.479,19.057ZM57.3,35.5a1.631,1.631,0,0,0,.88-.24v-.352c-.592.048-.432-.624-.992-.288C57.024,35,57.152,35.147,57.3,35.5Zm1.12,4.046c-.08-.336.128-.368.176-.592-.1-.336-.208-.64-.288-.992-.3-.128-.464-.4-.816-.464a3.711,3.711,0,0,0-1.168,1.407C56.656,39.465,57.408,39.641,58.415,39.545Zm-3.807-3.407c-.624-.144-1.359-1.008-1.823-.288a2.539,2.539,0,0,0,.416.768c.512-.176.9.32,1.343.416.352.08.7-.176,1.056.064.032-.56-.176-.784,0-1.232C55.12,35.627,54.9,35.995,54.609,36.139ZM46.852,22.16c.544-.32,1.312-.4,1.7-.88A2.61,2.61,0,0,0,46.852,22.16Zm4.462,13.211c.192.032.208.224.416.24.336-.432,1.3-.224,1.823-.464-.24-1.168-1.3-.288-2.111-.112C51.49,35.243,51.282,35.195,51.314,35.371Zm5.454,1.359a2.327,2.327,0,0,1,1.3.592c-.016-.4.48-.48.288-.88a1.911,1.911,0,0,1-.944-.352C57.248,36.347,56.864,36.394,56.768,36.73Z" fill="#ccc"/><path d="M108.892,54.052c-.032-.016-.048-.032-.08-.048H108.8c-.032-.016-.048-.032-.08-.048H108.7c-.032-.016-.048-.032-.08-.048H108.6c-.032-.016-.048-.032-.08-.048h-.016c-.032-.016-.048-.032-.08-.048h-.016c-.032-.016-.048-.032-.08-.048h-.016c-.032-.016-.048-.032-.08-.048h-.016c-.032-.016-.048-.032-.08-.048h-.016c-.032-.016-.048-.032-.08-.048h-.016c-.032-.016-.048-.032-.08-.048h-.016c-.032-.016-.048-.032-.08-.048h-.016c-.032-.016-.048-.032-.08-.048h-.016c-.032-.016-.048-.032-.08-.048h-.016c-.032-.016-.048-.032-.08-.048h-.016c-.032-.016-.048-.032-.08-.048h-.016c-.032-.016-.048-.032-.08-.048h-.016c-.032-.016-.048-.032-.08-.048h-.016c-.032-.016-.048-.032-.08-.048h-.016c-.032-.016-.048-.032-.08-.048h-.016c-.032-.016-.048-.032-.08-.048h-.016c-.032-.016-.048-.032-.08-.048h-.016c-.032-.016-.048-.032-.08-.048h-.016c-.032-.016-.048-.032-.08-.048h-.016c-.032-.016-.048-.032-.08-.048h-.016c-.032-.016-.048-.032-.08-.048h-.016c-.032-.016-.048-.032-.08-.048H106.4c-.032-.016-.048-.032-.08-.048H106.3c-.032-.016-.048-.032-.08-.048h-.016c-.032-.016-.048-.032-.08-.048h-.016c-.032-.016-.048-.032-.08-.048h-.016c-.032-.016-.048-.032-.08-.048h-.016c-.032-.016-.048-.032-.08-.048h-.016c-.032-.016-.048-.032-.08-.048h-.016c-.032-.016-.048-.032-.08-.048h-.016c-.032-.016-.048-.032-.08-.048h-.016c-.032-.016-.048-.032-.08-.048h-.016c-.032-.016-.048-.032-.08-.048h-.016c-.032-.016-.048-.032-.08-.048h-.016c-.032-.016-.048-.032-.08-.048h-.016c-.032-.016-.048-.032-.08-.048h-.016c-.032-.016-.048-.032-.08-.048h-.016c-.032-.016-.048-.032-.08-.048h-.016c-.032-.016-.048-.032-.08-.048h-.016c-.032-.016-.048-.032-.08-.048h-.016c-.032-.016-.048-.032-.08-.048h-.016c-.032-.016-.048-.032-.08-.048h-.016c-.032-.016-.048-.032-.08-.048h-.016c-.032-.016-.048-.032-.08-.048h-.016c-.032-.016-.048-.032-.08-.048h-.016c-.032-.016-.048-.032-.08-.048h-.016c-.032-.016-.048-.032-.08-.048H104c-.032-.016-.048-.032-.08-.048H103.9c-.032-.016-.048-.032-.08-.048h-.016c-.032-.016-.048-.032-.08-.048h-.016c-.032-.016-.048-.032-.08-.048h-.016c-.032-.016-.048-.032-.08-.048h-.016c-.032-.016-.048-.032-.08-.048h-.016c-.032-.016-.048-.032-.08-.048h-.016c-.032-.016-.048-.032-.08-.048h-.016c-.032-.016-.048-.032-.08-.048h-.016c-.032-.016-.048-.032-.08-.048h-.016c-.032-.016-.048-.032-.08-.048h-.016c-.032-.016-.048-.032-.08-.048h-.016c-.032-.016-.048-.032-.08-.048h-.016c-.032-.016-.048-.032-.08-.048h-.016c-.032-.016-.048-.032-.08-.048h-.016c-.032-.016-.048-.032-.08-.048h-.016c-.032-.016-.048-.032-.08-.048h-.016c-.032-.016-.048-.032-.08-.048h-.016c-.032-.016-.048-.032-.08-.048h-.016c-.032-.016-.048-.032-.08-.048h-.016c-.032-.016-.048-.032-.08-.048h-.016c-.032-.016-.048-.032-.08-.048h-.016c-.032-.016-.048-.032-.08-.048h-.016c-.032-.016-.048-.032-.08-.048h-.016c-.032-.016-.048-.032-.08-.048H101.6c-.032-.016-.048-.032-.08-.048H101.5c-.032-.016-.048-.032-.08-.048h-.016c-.032-.016-.048-.032-.08-.048h-.016c-.032-.016-.048-.032-.08-.048h-.016c-.032-.016-.048-.032-.08-.048h-.016c-6.813-3.887-17.865,2.5-24.663,14.251-6.813,11.756-6.813,24.423,0,28.309l9.756,5.566c.016,0,13.051-5.918,13.051-5.918C101.007,92.965,115.705,57.922,108.892,54.052ZM96.5,63.728a11.921,11.921,0,0,1,2.687-1.152,11.253,11.253,0,0,1,.4,3.071c0,6.669-4.718,14.794-10.524,18.153a11.921,11.921,0,0,1-2.687,1.152,11.253,11.253,0,0,1-.4-3.071C85.973,75.212,90.691,67.071,96.5,63.728Z" fill="#159ec3"/><path d="M108.892,82.345,99.136,99.171c-1.423,2.463-3.743,3.791-5.166,2.975L84.213,96.58c-6.813-3.887-6.813-16.554,0-28.309s17.865-18.121,24.663-14.251C115.705,57.922,115.705,70.605,108.892,82.345ZM96.5,63.728c-5.822,3.359-10.524,11.484-10.524,18.153s4.718,9.356,10.524,6c5.822-3.359,10.524-11.484,10.524-18.153S102.318,60.369,96.5,63.728Z" fill="#17b9e6"/></svg>