<svg id="Layer_1" data-name="Layer 1" xmlns="http://www.w3.org/2000/svg" viewBox="0 0 128 128"><title>Develop-icons</title><path d="M88.558,67.3,37.2,37.651V56.832A4.961,4.961,0,0,0,39.44,60.7L90.8,90.346V71.164A4.961,4.961,0,0,0,88.558,67.3Z" fill="none"/><path d="M99.076,49.273,39.44,14.846c-3.52-2.036-6.708-2.217-9-.87-.1.056-.2.114-.3.176l-.113.066q-.122.064-.241.134-.151.084-.3.176l-.113.066q-.122.064-.241.134t-.224.131q-.239.123-.466.267c-.062.035-.123.072-.184.109-.134.069-.265.143-.393.222q-.239.123-.466.267c-.062.035-.123.072-.184.109q-.239.123-.466.267c-.062.035-.123.072-.184.109-.134.069-.265.144-.393.222q-.239.123-.466.267c-.062.035-.123.072-.184.109q-.239.123-.466.267l-.079.047c-.051.029-.1.058-.153.088q-.214.112-.418.242l-.08.047q-.077.043-.152.088-.214.112-.418.242l-.08.047q-.113.063-.224.131-.239.123-.466.267c-.062.035-.123.072-.184.109-.134.069-.265.144-.393.222q-.239.123-.466.267c-.062.035-.123.072-.184.109q-.239.123-.466.267c-.062.035-.123.072-.184.109-.134.069-.265.144-.393.222q-.239.123-.466.267-.13.074-.257.154c-2.3,1.3-3.73,4.121-3.73,8.134V56.884c0,8,5.678,17.8,12.656,21.84L88.558,113.15c3.493,2.02,6.66,2.219,8.952.908q.141-.076.277-.159c.054-.029.107-.059.16-.089.1-.055.2-.113.3-.174q.1-.055.193-.113c.054-.029.107-.059.159-.089s.126-.071.188-.108q.2-.107.394-.229l.068-.04q.1-.052.188-.108c.121-.065.241-.132.357-.205q.207-.108.4-.232c.053-.03.106-.061.158-.092l.1-.057q.184-.1.361-.206.089-.049.176-.1c.054-.031.107-.063.16-.095.113-.061.225-.125.335-.193l.131-.076.09-.051.14-.079c.1-.053.193-.108.287-.167.059-.033.116-.066.174-.1l.049-.029.14-.079.142-.08.073-.04c.125-.067.247-.138.366-.214l.109-.064.1-.058.133-.076q.078-.043.154-.089.211-.111.412-.238l.025-.014q.141-.076.277-.159.1-.054.2-.113c.087-.049.174-.1.259-.153.049-.028.1-.056.146-.085q.1-.055.206-.114t.23-.133c.111-.06.22-.123.327-.19.053-.03.106-.061.158-.092l.1-.057q.184-.1.361-.206l.114-.064c.1-.054.2-.111.294-.171s.162-.092.242-.141l.114-.064q.1-.056.2-.115l.066-.039c.1-.056.2-.114.3-.175l.082-.047q.081-.045.161-.092c.049-.027.1-.056.146-.084,2.317-1.3,3.75-4.12,3.742-8.156V71.113C111.731,63.109,106.053,53.309,99.076,49.273ZM39.44,60.7a4.961,4.961,0,0,1-2.24-3.865V37.651L88.558,67.3a4.961,4.961,0,0,1,2.24,3.865V90.346Z" fill="#17b9e6"/><path d="M88.558,113.15,28.922,78.723c-6.978-4.036-12.656-13.836-12.656-21.84V28.135c0-8,5.678-11.253,12.656-7.217L88.558,55.344c6.978,4.036,12.656,13.836,12.656,21.84v28.749C101.213,113.954,95.535,117.186,88.558,113.15ZM28.922,32.872c-1.231-.718-2.24-.137-2.24,1.283V62.9a4.961,4.961,0,0,0,2.24,3.865L88.558,101.2c1.231.718,2.24.137,2.24-1.283V71.164a4.961,4.961,0,0,0-2.24-3.865Z" fill="#159ec3"/><path d="M83.342,44.485a4.892,4.892,0,0,0-4.464,0L27.978,73.87l16.7,9.641a4.892,4.892,0,0,0,4.464,0L100.05,54.133Z" fill="none"/><path d="M124,51.316c0-.051,0-.1,0-.154s0-.1,0-.154,0-.1,0-.154,0-.1,0-.148,0-.1,0-.143,0-.1,0-.154,0-.1,0-.154,0-.1,0-.154,0-.1,0-.154,0-.1,0-.154,0-.1,0-.148,0-.1,0-.143,0-.1,0-.154,0-.1,0-.154,0-.1,0-.148,0-.1,0-.149,0-.106,0-.159,0-.1,0-.143,0-.1,0-.154,0-.1,0-.154,0-.1,0-.154c.029-2.671-1.723-5.353-5.255-7.4L93.688,26.271c-6.978-4.036-18.3-4.053-25.243-.051L9.186,60.441C5.689,62.457,3.963,65.119,4,67.779c0,.051,0,.1,0,.152s0,.1,0,.15,0,.1,0,.153,0,.1,0,.152,0,.1,0,.153,0,.1,0,.151,0,.1,0,.148,0,.1,0,.15,0,.1,0,.153,0,.1,0,.152,0,.1,0,.153,0,.1,0,.151,0,.1,0,.15,0,.1,0,.152,0,.1,0,.149,0,.1,0,.153,0,.1,0,.154,0,.1,0,.149,0,.1,0,.15,0,.1,0,.152,0,.1,0,.149,0,.1,0,.153,0,.1,0,.153,0,.1,0,.15,0,.1,0,.15,0,.1,0,.151,0,.1,0,.15,0,.1,0,.153,0,.1,0,.152,0,.1,0,.15,0,.1,0,.15,0,.1,0,.151,0,.1,0,.15,0,.1,0,.153,0,.1,0,.152,0,.1,0,.15,0,.1,0,.15,0,.1,0,.151,0,.1,0,.15,0,.1,0,.153,0,.1,0,.152,0,.1,0,.15,0,.1,0,.15,0,.1,0,.152,0,.1,0,.15,0,.1,0,.153,0,.1,0,.152,0,.1,0,.153,0,.1,0,.151,0,.1,0,.148,0,.1,0,.15,0,.1,0,.153,0,.1,0,.152,0,.1,0,.153,0,.1,0,.151,0,.1,0,.15,0,.1,0,.152,0,.1,0,.149,0,.1,0,.153,0,.1,0,.154,0,.1,0,.149,0,.1,0,.15,0,.1,0,.152,0,.1,0,.149,0,.1,0,.153,0,.1,0,.153,0,.1,0,.15,0,.1,0,.15,0,.1,0,.151,0,.1,0,.15,0,.1,0,.153,0,.1,0,.152,0,.1,0,.15,0,.1,0,.15,0,.1,0,.151,0,.1,0,.15,0,.1,0,.153,0,.1,0,.152,0,.1,0,.15,0,.1,0,.15c-.029,2.672,1.722,5.353,5.253,7.387l25.055,14.468c6.978,4.036,18.3,4.053,25.243.051l59.276-34.222c3.488-2.015,5.21-4.672,5.17-7.328,0-.051,0-.1,0-.154s0-.1,0-.148,0-.1,0-.143,0-.1,0-.154,0-.1,0-.154,0-.1,0-.154,0-.1,0-.154,0-.1,0-.148,0-.1,0-.143,0-.1,0-.154,0-.1,0-.154,0-.1,0-.154,0-.1,0-.154,0-.1,0-.148,0-.1,0-.143,0-.1,0-.154,0-.1,0-.154,0-.1,0-.154,0-.1,0-.154,0-.1,0-.148,0-.1,0-.143,0-.1,0-.154,0-.1,0-.154,0-.1,0-.154,0-.1,0-.154,0-.1,0-.154,0-.1,0-.148,0-.1,0-.143,0-.1,0-.154,0-.1,0-.154,0-.1,0-.148,0-.1,0-.149,0-.106,0-.159,0-.1,0-.143,0-.1,0-.154,0-.1,0-.154,0-.1,0-.154,0-.1,0-.154,0-.1,0-.148,0-.1,0-.143,0-.1,0-.154,0-.1,0-.154,0-.1,0-.154,0-.1,0-.154,0-.1,0-.148,0-.1,0-.143,0-.1,0-.154,0-.1,0-.154,0-.1,0-.154,0-.1,0-.154,0-.1,0-.148,0-.1,0-.143,0-.1,0-.154,0-.1,0-.154,0-.1,0-.154,0-.1,0-.154,0-.1,0-.148,0-.1,0-.143S124,51.368,124,51.316Zm-79.325,32.2-16.7-9.641,50.9-29.386a4.892,4.892,0,0,1,4.464,0l16.709,9.649L49.137,83.512A4.892,4.892,0,0,1,44.673,83.512Z" fill="#ededed"/><path d="M9.186,60.441,68.445,26.219c6.943-4,18.265-3.985,25.243.051l25.055,14.468c6.978,4.036,7.012,10.569.086,14.571L59.552,89.532c-6.944,4-18.265,3.985-25.243-.051L9.255,75.012C2.277,70.993,2.243,64.443,9.186,60.441Zm99.227-11.134c1.231-.7,1.214-1.864-.017-2.582L83.342,32.256a4.892,4.892,0,0,0-4.464,0L19.6,66.461c-1.231.7-1.214,1.864.017,2.582L44.673,83.512a4.892,4.892,0,0,0,4.464,0Z" fill="#f6f6f6"/><path d="M87.549,57.876c6.978,4.036,9.919,11.835,9.919,19.839l-.205,9.509h14.486V71.113c0-8-5.678-17.8-12.656-21.84L39.543,14.9V33.043Z" fill="#17b9e6"/><path d="M88.558,55.344,33.454,23.38l1.539,13L88.558,67.3a4.961,4.961,0,0,1,2.24,3.865V93.842h10.415V77.167C101.213,69.18,95.535,59.381,88.558,55.344Z" fill="#159ec3"/></svg>