<svg id="Layer_1" data-name="Layer 1" xmlns="http://www.w3.org/2000/svg" viewBox="0 0 128 128"><title>Develop-icons</title><polygon points="101.471 16.502 63.948 38.158 71.408 42.482 71.408 85.552 108.948 63.879 108.948 20.809 101.471 16.502" fill="#ededed"/><polygon points="108.948 63.879 71.408 85.552 71.408 42.482 108.948 20.809 108.948 63.879" fill="#ededed"/><polygon points="63.948 38.158 71.408 42.465 108.948 20.809 101.471 16.485 63.948 38.158" fill="#f6f6f6"/><g id="plain"><path d="M99.335,40.656,91.117,39.9a2.322,2.322,0,0,0-1.706.982L80.987,51.251A4.19,4.19,0,0,0,80,53.543V64.551a1.1,1.1,0,0,0,1,1.172l2.24.138a2.934,2.934,0,0,0,1.809-.465,4.763,4.763,0,0,0,2.36-4.359V50.166c0-.155.138-.551,0-.465l-1.016.6a1.378,1.378,0,0,0-.362.724V61.9a2.071,2.071,0,0,1-1.93,2.067l-2.257-.19c-.086,0-.121-.069-.121-.172V52.595a.786.786,0,0,1,.138-.362l8.3-10.3a.384.384,0,0,1,.258-.155l8.252.724c.086.017.086.1.086.207V53.715a.487.487,0,0,1-.069.31L90.411,64.31c-.069.086-.172.155-.241.138l-2.119-.224a.242.242,0,0,0-.207.1,11.315,11.315,0,0,1-1.258,1.378c-.138.138-.345.345.069.379l2.774.276a1.515,1.515,0,0,0,.879-.241,3.309,3.309,0,0,0,.879-.775l8.114-10.2a3.308,3.308,0,0,0,.672-2.136V42C100.024,41.276,99.886,40.708,99.335,40.656Z" fill="#fff"/><path d="M92.909,55.369c-2.205,1.275-2.688.948-2.843-.207-.017-.121-.121-.121-.241-.052l-1.068.62a.444.444,0,0,0-.241.379c0,1.6.758,3.067,4.393.965,2.636-1.516,4.135-3.583,4.135-5.668,0-2.067-1.206-1.912-3.773-.827-2.584,1.1-2.843,1.051-2.843.345,0-.569.224-1.464,2.136-2.567,1.706-.982,2.343-1.016,2.6.155.017.1.121.052.241,0l1.085-.62c.069-.034.138-.017.172-.1a.367.367,0,0,0,.069-.207c-.172-2.171-1.482-2.464-4.152-.913-2.36,1.361-3.79,3.342-3.79,5.272,0,2.085,1.413,1.861,3.687.81,2.722-1.258,2.929-.93,2.929-.31C95.407,53.474,94.666,54.369,92.909,55.369Z" fill="#fff"/></g><polygon points="63.966 38.175 64 38.158 26.477 16.485 19 20.809 19 63.862 56.54 85.535 56.54 42.516 64 46.824 64 89.859 101.54 111.515 109 107.208 109 64.138 63.966 38.175" fill="#17b9e6"/><polygon points="56.54 85.535 19 63.862 19 20.809 56.54 42.465 56.54 85.535" fill="#17b9e6"/><polygon points="64 81.211 56.54 85.535 56.54 42.465 64 38.158 64 81.211" fill="#5abbde"/><polygon points="64 38.158 56.54 42.465 19 20.809 26.477 16.485 64 38.158" fill="#45c7eb"/><path d="M40.346,43.309c9.768,13.248,6.6,19.812,6.6,19.812s2.774,5.186,1.654,7.684c0,0-1.154-2.86-3.067-3.962-1.843-1.068-2.929.5-6.667-1.654C30.577,60.4,26.649,50.2,26.649,50.2c7.46,9.958,12.559,8.907,12.559,8.907C35.832,54.921,28.682,40.07,28.682,40.07c6.237,9.682,8.924,12.835,8.924,12.835C35.987,50.459,31.49,40.4,31.49,40.4c3.618,6.271,10.785,16.246,10.785,16.246C44.343,51.389,40.346,43.309,40.346,43.309Z" fill="#fff"/><polygon points="101.54 111.515 64 89.859 64 46.789 101.54 68.462 101.54 111.515" fill="#17b9e6"/><polygon points="56.54 42.465 19 64.138 19 107.208 26.477 111.515 64 89.859 64 46.789 56.54 42.465" fill="#ededed"/><polygon points="109 107.208 101.54 111.515 101.54 68.462 109 64.138 109 107.208" fill="#159ec3"/><polygon points="109 64.138 101.54 68.462 56.471 42.482 63.948 38.158 109 64.138" fill="#45c7eb"/><path d="M91.289,81.073l-.982-.569-.241,1.258-.758-.431.258-1.24-.982-.569-.241,1.258-1.051-.6v1l.861.5-.172,1.085-.689-.4v1l.5.293L87.551,85.1l.982.569.241-1.447.758.448-.241,1.447.982.569.241-1.447,1.1.637v-1l-.913-.534.172-1.085.741.431v-1l-.534-.31ZM89.7,83.743l-.758-.448.172-1.085.758.431Z" fill="#fff"/><path d="M81.986,84.364A10.935,10.935,0,0,1,77.025,75.8c0-3.136,2.222-4.41,4.962-2.825a10.878,10.878,0,0,1,4.324,5.392l2.619-.224A17.513,17.513,0,0,0,81.986,69.5c-4.41-2.55-7.994-.5-7.994,4.565s3.583,11.25,7.994,13.8c2.963,1.706,5.547,1.344,6.926-.6l-2.619-3.273C85.449,85.208,83.83,85.432,81.986,84.364Z" fill="#fff"/><polygon points="64 89.859 26.477 111.515 26.477 68.462 64 46.789 64 89.859" fill="#ededed"/><polygon points="19 107.208 26.477 111.515 26.477 68.462 19 64.138 19 107.208" fill="#dadada"/><polygon points="19 64.138 26.477 68.462 64 46.789 56.54 42.465 19 64.138" fill="#f6f6f6"/><path d="M53.474,70.805l-3.5,2.016-1.619,10.7,1.809-1.051.431-3.153,1.551-.9a7.966,7.966,0,0,0,1.688-1.12,6.511,6.511,0,0,0,1.206-1.413,9.142,9.142,0,0,0,.741-1.482,6.785,6.785,0,0,0,.4-1.516c.19-1.24.052-2.067-.431-2.429C55.283,70.1,54.525,70.2,53.474,70.805Zm.844,3a4.575,4.575,0,0,1-.724,1.981,4.948,4.948,0,0,1-1.637,1.378l-1.1.637.672-4.5,1.24-.724c.689-.4,1.154-.431,1.378-.276C54.387,72.459,54.438,73.01,54.318,73.8Z" fill="#fff"/><path d="M41.6,78.627c-.482-.362-1.24-.258-2.291.345L35.815,81,34.2,91.7,36,90.652l.431-3.153,1.551-.9a7.966,7.966,0,0,0,1.688-1.12,6.511,6.511,0,0,0,1.206-1.413,8.634,8.634,0,0,0,.741-1.5,6.785,6.785,0,0,0,.4-1.516Q42.327,79.169,41.6,78.627Zm-1.447,3.342a4.575,4.575,0,0,1-.724,1.981A4.948,4.948,0,0,1,37.8,85.328l-1.1.637.672-4.5,1.24-.724c.689-.4,1.154-.431,1.378-.276C40.225,80.642,40.277,81.194,40.156,81.969Z" fill="#fff"/><path d="M48.426,74.354c-.379-.19-1.085,0-2.085.569l-1.6.93.431-2.808-1.809,1.034L41.741,84.433,43.55,83.4l.93-6.013,1.447-.827c.465-.258.758-.293.9-.207s.172.465.086.982l-.724,4.531,1.826-1.051.758-4.789C48.925,75.026,48.822,74.526,48.426,74.354Z" fill="#fff"/></svg>