<?xml version="1.0" encoding="utf-8"?>
<!-- Generator: Adobe Illustrator 21.0.0, SVG Export Plug-In . SVG Version: 6.00 Build 0)  -->
<svg version="1.1" id="Layer_1" xmlns="http://www.w3.org/2000/svg" xmlns:xlink="http://www.w3.org/1999/xlink" x="0px" y="0px"
	 viewBox="0 0 182 222" style="enable-background:new 0 0 182 222;" xml:space="preserve">
<style type="text/css">
	.st0{fill:#F9F9F9;}
	.st1{opacity:0.4;fill:#1D1D1B;enable-background:new    ;}
	.st2{clip-path:url(#SVGID_2_);}
	.st3{opacity:0.14;}
	.st4{fill:#FFFFFF;}
	.st5{fill:#F5F5F5;}
	.st6{fill:#ECECEC;}
	.st7{fill:#E5E5E5;}
	.st8{fill:#FDFDFD;}
	.st9{fill:#17B9E6;}
	.st10{fill:#C6C6C6;}
	.st11{fill:#DADADA;}
	.st12{fill:#3799B7;}
	.st13{fill:#F6F6F6;}
</style>
<path class="st0" d="M0.7,164.8v2.5c0,2.2,1.1,4.1,3,5.2L88,221.2c1.9,1.1,4.2,1.1,6,0l81.6-47.1L12,171.3L0.7,164.8z"/>
<path class="st1" d="M178.3,64.8L94,16.1c-1.9-1.1-4.2-1.1-6,0L3.7,64.8c-1.9,1.1-3,3.1-3,5.2v94.9l11.3,6.5l163.6,2.8l2.7-1.5
	c1.9-1.1,3-3.1,3-5.2V70C181.3,67.8,180.2,65.8,178.3,64.8z"/>
<g>
	<g>
		<defs>
			<path id="SVGID_1_" d="M178.3,64.8L94,16.1c-1.9-1.1-4.2-1.1-6,0L3.7,64.8c-1.9,1.1-3,3.1-3,5.2v97.3c0,2.2,1.1,4.1,3,5.2
				L88,221.2c1.9,1.1,4.2,1.1,6,0l84.3-48.7c1.9-1.1,3-3.1,3-5.2V70C181.3,67.8,180.2,65.8,178.3,64.8z"/>
		</defs>
		<clipPath id="SVGID_2_">
			<use xlink:href="#SVGID_1_"  style="overflow:visible;"/>
		</clipPath>
		<g class="st2">
			<g class="st3">
				<polygon points="91.2,257.9 237.6,173.3 91,88.9 -55.2,173.3 				"/>
			</g>
		</g>
	</g>
</g>
<g>
	<path class="st0" d="M0.7,164.8v2.5c0,2.2,1.1,4.1,3,5.2L88,221.2c1.9,1.1,4.2,1.1,6,0l81.6-47.1L12,171.3L0.7,164.8z"/>
	<path class="st4" d="M172.1,169.9c0.6-1,0.8-2.1,0.9-3.3c0-0.1,0-0.2,0-0.3l0,0c0-10.7-8.6-19.3-19.3-19.4c-1.8,0-3.7,0.3-5.5,0.8
		c-8.4,6.7-4.8,18.7-3.2,23.6C151.1,172.8,165.2,173.7,172.1,169.9z"/>
	<path class="st5" d="M53.2,156c2.6,0,13.8-5.5,29.8-0.5l2.4-11.4c0,0,0-4.8-4.4-16.1c-0.6,0-1.2-0.1-1.8-0.1
		c-7.5,0-14.5,3.5-19.1,9.4c-13-6.9-29.1-2-36,10.9c-2,3.7-3,7.8-3.1,12c3.4,2.4-1.9,6.9,3.9,5.5C29.2,160,46,156,53.2,156z"/>
	<path class="st6" d="M156.1,160.7c-4.4,2.8-2.7,4.6-2.7,7.9v1.2c-8.2-0.4-2,3.5-2,3.7c0,6.8-5.6,5.2-9.3,13.5
		c1.3,1.4,2.5,2.8,3.6,4.4l29.9-17.2C170.9,167.4,164,162.7,156.1,160.7L156.1,160.7z"/>
	<path class="st6" d="M1.4,164.8c-0.2,0-0.5,0-0.7,0v2.5c0,2.2,1.1,4.1,3,5.2l4,2.3c5.4-0.8,8-3.2,4.3-6.1
		C9,166.2,5.3,164.8,1.4,164.8z"/>
	<path class="st4" d="M34.3,180.8c-6.3,0-4-2.4-4-6c0-0.1-1.1-1.6-1.1-1.6l1.2-0.6c0-6,4-6.2,10-6.6c0.3-4.7,2.5-9.9-3.5-13.1
		c-5.8,1.4-11.2,3.9-16,7.3c-5.4,3.8-10,8.8-13.3,14.6l25.7,14.8c7.8-1.5,4.2-5.2,5.1-7C37.8,182.7,35,180.8,34.3,180.8z"/>
	<path class="st0" d="M101,187c-5.7-5.1-14.9,2.5-19.9,2.5c-0.2,0-4.3,1.9-4.5,1.9c-0.8,1.7-2.1,13.3-2.7,15.1
		c7,4.4,10.3,6.4,17.4,15.5c0.9,0,1.9-0.3,2.7-0.8l21.4-12.3C113.1,198.3,101.3,194.1,101,187z"/>
	<path class="st0" d="M130.8,186.6c0.6,1.9,0,5.8,11.8,6.5l3.2-1.8c-1.1-1.5-2.3-3-3.6-4.4C141.9,187.1,131,186.6,130.8,186.6z"/>
	<path class="st6" d="M76.6,203c-4.9-9.6-9.6-12.9-18.7-5.4c-0.4,0-0.7,0-1.1,0c-2.2,0.9-4.5,1.5-6.9,1.6l38,21.9
		c1,0.6,2.2,0.9,3.3,0.8C88.8,214.1,83.6,207.4,76.6,203z"/>
	<path class="st4" d="M109.2,152.2c6.2-3.2,18.3-5.2,21.6-13.6c-7-8.7-18.6-12.4-29.3-9.2C96,139.2,106.1,150,109.2,152.2z"/>
	<path class="st7" d="M62.6,144.6L63,145c1.1,5.5,6.7,11.9,9.5,16.5c1.3-0.2,6.3,1.2,7.6,1.2c4.1,0,11.2,1.1,14.8-2.5l-2-62.4
		c0,0-1.1,0,0.4-0.1v-0.3c0,0-4.5,0.2-7.9,0.2c-0.1,13.8-1.9,23.5-4.5,30.4C74.4,145.8,62.6,144.6,62.6,144.6z"/>
	<path class="st6" d="M91,157.1c1.2,3.6,5.5,8.1,6.7,8.9c2.8-7.6,14.7-15.9,12.8-24.3c-3.1-2.2-6.4-5.9-9-12.3
		c-2.9-6.9-4.9-17.1-5-31.7c-1.2,0-2.2,0-3,0c-1.6,0-2.4,0.1-2.4,0.1L91,157.1z"/>
	<path class="st6" d="M75.3,154.7c-6.8-10.9-21.2-14.2-32.1-7.4c-6.4,4-10.5,10.9-10.9,18.5c0.2,0,0.4,0,0.7,0
		c4.1,6.8,1.2,11.3,8.2,13.6c2.3,5,14.3,4.1,17.9-0.6C61.2,167.4,71.8,161.7,75.3,154.7z"/>
	<path class="st7" d="M32.9,165.8c-0.2,0-0.4,0-0.7,0c-6,0.3-10.7,5.3-10.7,11.3l0,0c0,0.1,0,0.1,0,0.2c0,3.6,5.1,6.5,11.3,6.5
		c0.7,0,1.4,0,2.1-0.1c6.1-1.4,8.5-2.9,9.2-7.4C43.8,170.4,38.8,165.8,32.9,165.8z"/>
	<path class="st5" d="M110.5,141.7c-7.3,3.7-12.8,10-15.7,17.7c1.2,6.4,6.4,15.9,8.2,21.8c11.4-7.2,13.9,1.9,26.5,4.7
		c1.1,1.8,5.2,0.6,12,1.4c0.2-0.1,0.4-0.1,0.6-0.2c9.3-3.3,15.5-9.2,15.5-15.9c0-0.2,0-0.4,0-0.6l0,0c0-17.9-14.5-32.4-32.3-32.4
		C120.1,138.1,115,139.3,110.5,141.7L110.5,141.7z"/>
	<path class="st4" d="M93.9,194.5L93.9,194.5c11.4-4.8,16.8-11.8,11.4-20.6c-4.3-14.4-19.4-22.6-33.7-18.3c-9.7,2.9-17.1,11-19,20.9
		c0,8.3,3.3,4.6,3.3,11l-1,2.6c-6.3-3,2.3,1.2,2.3,1.3c0,2.8-3.4,2.1-0.3,6.3c0.4,0,0.7,0,1.1,0c6.6,0,13.1,1.9,18.7,5.4
		c0.5-1.8,1.2-3.6,2-5.3c0.2,0,0.4,0,0.6,0c5,0,10-0.8,14.7-2.5c0-0.1,0-0.2,0-0.3C93.9,194.7,93.9,194.6,93.9,194.5z"/>
	<path class="st8" d="M118.2,170.1c-13.5,0-24.4,10.9-24.4,24.4l0,0c0,0.1,0,0.3,0,0.4c0,0.1,0,0.2,0,0.3
		c0.3,7.1,9.6,12.8,21.5,13.6l27.2-15.7C141.9,180.2,131.2,170.1,118.2,170.1L118.2,170.1z"/>
	<path class="st5" d="M62.8,190.8c0-0.1,0-0.2,0-0.3l0,0c0-8.1-6.6-14.8-14.7-14.8c-7.8,0-14.3,6.1-14.8,13.9l16.6,9.6
		c2.4-0.2,4.7-0.7,6.9-1.6C60.5,196.1,62.8,193.6,62.8,190.8z"/>
</g>
<title>hex-icon-edits</title>
<path class="st9" d="M100.4,94c5,2.5,5,6.7,0,9.2s-13.2,2.5-18.2,0s-5-6.7,0-9.2S95.4,91.5,100.4,94z"/>
<polygon class="st10" points="67.9,103.6 66.1,102.5 66.1,118 67.9,119 "/>
<polygon class="st11" points="113.2,103.6 115,102.5 114.9,118 113.1,119 "/>
<path class="st5" d="M73.6,67.7L73.6,67.7L73.6,67.7z"/>
<path class="st5" d="M109,67.8L109,67.8L109,67.8z"/>
<polygon class="st9" points="100.8,69.5 99,68.4 99.1,84.1 100.9,85.2 "/>
<path class="st10" d="M111.6,68.6l-1.8-1c-2.1-1.2-5.4-1.4-10.7,0.9l1.8,1C106.2,67.2,109.5,67.4,111.6,68.6z"/>
<path class="st11" d="M100.8,69.5v15.7l9.7,8.3l4.4-2.5V75.5C114.9,74.9,114.9,63.4,100.8,69.5z"/>
<polygon class="st12" points="80.2,69.5 82,68.4 82,84.1 80.2,85.2 "/>
<path class="st10" d="M69.5,68.6l1.8-1c2.1-1.2,5.4-1.4,10.7,0.9l-1.8,1C74.9,67.2,71.5,67.4,69.5,68.6z"/>
<path class="st10" d="M80.2,69.5v15.7l-9.7,8.3L66.1,91V75.5C66.1,74.9,66.2,63.4,80.2,69.5z"/>
<path class="st9" d="M98.4,77.4c7.5-9.2,11.7-22.3,11.7-29.3c0-7.8-1.6-15.6-4.5-22.8c-0.2,1.7-7.9-4.5-10.5-3.2
	c-5.6,2.8-3.4,1.5-9-1.3c-2.6-1.3-8.9,6.2-9,4.5c-3,7.2-4.5,15-4.5,22.8c0,7,4.1,20.1,11.7,29.3l0,0c-1.2,1.4-0.6,3.1,1.7,4.2
	c3.5,1.5,7.4,1.5,10.9,0C99,80.5,99.6,78.9,98.4,77.4L98.4,77.4z"/>
<path class="st11" d="M105.4,25c-3.1-7.6-7.4-14.6-12.9-20.7c-0.7-0.7-1.8-0.7-2.5,0l0,0c-5.4,6.1-9.8,13.1-12.9,20.7
	c0,0.1-0.1,0.2-0.1,0.3c0.2,1.7,1.6,3.4,4.2,4.8c5.6,2.8,14.6,2.8,20.2,0c2.6-1.3,4-3,4.2-4.8C105.5,25.2,105.5,25.1,105.4,25z"/>
<path class="st9" d="M104.2,98.6H78.5c0,0-3.4-18.4-4.8-30.4c-0.8-6.7-1.2-13.4-1.1-20.2h37.5c0.2,6.8-0.2,13.6-1.1,20.4
	C107.4,80.7,104.2,98.6,104.2,98.6z"/>
<path class="st10" d="M81.9,81.3l-1.8-1c-14,10.2-14,21.6-14,22.2l1.8,1C67.9,103,67.8,91.5,81.9,81.3z"/>
<path class="st11" d="M81.9,81.3c-14,10.2-14,21.6-14,22.2L68,119l4.3-2.5L81.9,97V81.3z"/>
<path class="st11" d="M99.2,81.3l1.8-1c14,10.2,14,21.6,14,22.2l-1.8,1C113.2,103,113.2,91.5,99.2,81.3z"/>
<path class="st10" d="M99.2,81.3c14,10.2,14,21.6,14,22.2l-0.1,15.5l-4.3-2.5L99.1,97L99.2,81.3z"/>
<path class="st10" d="M101,54.4c-0.3,5.3-4.5,9.5-9.8,9.6c-5.3-0.2-9.5-4.4-9.7-9.6c-0.2-5.3,4.2-9.6,9.8-9.6S101.3,49.1,101,54.4z"
	/>
<rect x="81.5" y="53.7" class="st10" width="19.5" height="2"/>
<path class="st11" d="M101,55.7c-0.3,5.3-4.5,9.5-9.8,9.6c-5.3-0.2-9.5-4.4-9.7-9.6c-0.2-5.3,4.2-9.6,9.8-9.6S101.3,50.3,101,55.7z"
	/>
<path class="st13" d="M98.6,55.8c-0.2,4-3.4,7.2-7.4,7.3c-4-0.1-7.2-3.3-7.3-7.3c-0.1-3.9,3.1-7.2,7-7.3c0.1,0,0.3,0,0.4,0
	c3.9-0.2,7.2,2.9,7.3,6.7C98.6,55.4,98.6,55.6,98.6,55.8z"/>
</svg>
