<svg id="Layer_1" data-name="Layer 1" xmlns="http://www.w3.org/2000/svg" viewBox="0 0 128 128"><title>Develop-icons</title><polygon points="4 107.7 14.907 113.998 25.813 95.186 4 95.186 4 107.7" fill="#159ec3"/><polygon points="14.907 101.483 36.733 114.078 58.547 76.441 14.907 76.441 14.907 101.483" fill="#dadada"/><polygon points="124 89.036 80.36 114.226 36.733 38.964 124 38.964 124 89.036" fill="#ededed"/><polygon points="36.733 89.036 80.36 114.226 80.36 64.167 36.733 38.964 36.733 89.036" fill="#dadada"/><polygon points="36.733 38.964 80.36 64.167 124 38.964 80.36 13.774 36.733 38.964" fill="#f6f6f6"/><polygon points="58.547 101.483 36.733 114.078 36.733 89.036 58.547 76.441 58.547 101.483" fill="#ededed"/><polygon points="14.907 76.441 36.733 89.036 58.547 76.441 36.733 63.846 14.907 76.441" fill="#f6f6f6"/><polygon points="25.813 107.7 14.907 113.998 14.907 101.483 25.813 95.186 25.813 107.7" fill="#17b9e6"/><polygon points="4 95.186 14.907 101.483 25.813 95.186 14.907 88.888 4 95.186" fill="#45c7eb"/></svg>