<svg id="Layer_1" data-name="Layer 1" xmlns="http://www.w3.org/2000/svg" xmlns:xlink="http://www.w3.org/1999/xlink" viewBox="0 0 182 222"><defs><clipPath id="clip-path"><path d="M178.308,64.753,94.013,16.086a6.027,6.027,0,0,0-6.027,0L3.693,64.753A6.026,6.026,0,0,0,.68,69.972v97.335a6.026,6.026,0,0,0,3.013,5.219l84.294,48.667a6.027,6.027,0,0,0,6.027,0l84.295-48.667a6.027,6.027,0,0,0,3.012-5.219V69.972A6.027,6.027,0,0,0,178.308,64.753Z" fill="none"/></clipPath></defs><title>hex-icon-edits</title><path d="M178.308,64.753,94.013,16.086a6.027,6.027,0,0,0-6.027,0L3.693,64.753A6.026,6.026,0,0,0,.68,69.972v97.335a6.026,6.026,0,0,0,3.013,5.219l84.294,48.667a6.027,6.027,0,0,0,6.027,0l84.295-48.667a6.027,6.027,0,0,0,3.012-5.219V69.972A6.027,6.027,0,0,0,178.308,64.753Z" fill="#1d1d1b" opacity="0.4"/><g clip-path="url(#clip-path)"><g opacity="0.14"><polygon points="91.183 257.869 237.596 173.337 90.966 88.932 -55.229 173.337 91.183 257.869"/></g></g><path d="M148.207,160.213a2.309,2.309,0,0,0-1.371-1.968L33.24,144.882a2.3,2.3,0,0,0-1.373,1.969c0,.018,0,.036,0,.054s0,.036,0,.054,0,.036,0,.054,0,.036,0,.054,0,.036,0,.054,0,.036,0,.054,0,.036,0,.054,0,.036,0,.054,0,.036,0,.054,0,.036,0,.054,0,.036,0,.054,0,.036,0,.054,0,.036,0,.054,0,.036,0,.054,0,.036,0,.054,0,.036,0,.054,0,.036,0,.054,0,.036,0,.054,0,.036,0,.054,0,.036,0,.054,0,.036,0,.054,0,.036,0,.054,0,.036,0,.054,0,.036,0,.054,0,.036,0,.054,0,.036,0,.054,0,.036,0,.054,0,.036,0,.054,0,.036,0,.054,0,.036,0,.054,0,.036,0,.054,0,.036,0,.054,0,.036,0,.054,0,.036,0,.054,0,.036,0,.054,0,.036,0,.054,0,.036,0,.054,0,.036,0,.054,0,.036,0,.054,0,.036,0,.054,0,.036,0,.054,0,.036,0,.054,0,.036,0,.054,0,.036,0,.054,0,.036,0,.054,0,.036,0,.054,0,.036,0,.054,0,.036,0,.054,0,.036,0,.054,0,.036,0,.054,0,.036,0,.054,0,.036,0,.054,0,.036,0,.054,0,.036,0,.054,0,.036,0,.054,0,.036,0,.054,0,.036,0,.054,0,.036,0,.054,0,.036,0,.054,0,.036,0,.054,0,.036,0,.054,0,.036,0,.054,0,.036,0,.054,0,.036,0,.054,0,.036,0,.054,0,.036,0,.054,0,.036,0,.054,0,.036,0,.054,0,.036,0,.054,0,.036,0,.054,0,.036,0,.054,0,.036,0,.054,0,.036,0,.054,0,.036,0,.054,0,.036,0,.054,0,.036,0,.054,0,.036,0,.054,0,.036,0,.054,0,.036,0,.054,0,.036,0,.054a2.38,2.38,0,0,0,1.4,1.968l64.993,37.524a7.375,7.375,0,0,0,6.7,0L146.8,166.517a2.382,2.382,0,0,0,1.407-1.976c0-.018,0-.036,0-.054s0-.036,0-.054,0-.036,0-.054,0-.036,0-.054,0-.036,0-.054,0-.036,0-.054,0-.036,0-.054,0-.036,0-.054,0-.036,0-.054,0-.036,0-.054,0-.036,0-.054,0-.036,0-.054,0-.036,0-.054,0-.036,0-.054,0-.036,0-.054,0-.036,0-.054,0-.036,0-.054,0-.036,0-.054,0-.036,0-.054,0-.036,0-.054,0-.036,0-.054,0-.036,0-.054,0-.036,0-.054,0-.036,0-.054,0-.036,0-.054,0-.036,0-.054,0-.036,0-.054,0-.036,0-.054,0-.036,0-.054,0-.036,0-.054,0-.036,0-.054,0-.036,0-.054,0-.036,0-.054,0-.036,0-.054,0-.036,0-.054,0-.036,0-.054,0-.036,0-.054,0-.036,0-.054,0-.036,0-.054,0-.036,0-.054,0-.036,0-.054,0-.036,0-.054,0-.036,0-.054,0-.036,0-.054,0-.036,0-.054,0-.036,0-.054,0-.036,0-.054,0-.036,0-.054,0-.036,0-.054,0-.036,0-.054,0-.036,0-.054,0-.036,0-.054,0-.036,0-.054,0-.036,0-.054,0-.036,0-.054,0-.036,0-.054,0-.036,0-.054,0-.036,0-.054,0-.036,0-.054,0-.036,0-.054,0-.036,0-.054,0-.036,0-.054,0-.036,0-.054,0-.036,0-.054,0-.036,0-.054,0-.036,0-.054,0-.036,0-.054,0-.036,0-.054,0-.036,0-.054,0-.036,0-.054,0-.036,0-.054,0-.036,0-.054,0-.036,0-.054,0-.036,0-.054,0-.036,0-.054,0-.036,0-.054,0-.036,0-.054,0-.036,0-.054,0-.036,0-.054S148.207,160.231,148.207,160.213Z" fill="#dadada"/><path d="M75.078,120.726,33.24,144.882c-1.864,1.076-1.821,2.814.031,3.883l64.993,37.524a7.375,7.375,0,0,0,6.7,0L146.8,162.135c1.863-1.076,1.887-2.821.035-3.89L81.843,120.721A7.514,7.514,0,0,0,75.078,120.726Zm49.2,50.287a1.2,1.2,0,0,1-.012,2.266,4.337,4.337,0,0,1-3.924.007,1.2,1.2,0,0,1,.012-2.266A4.336,4.336,0,0,1,124.275,171.013ZM83.211,124.667l56.331,32.523c.247.143.273.366.025.51L97.278,182.114a1.008,1.008,0,0,1-.905,0L40.042,149.59a.275.275,0,0,1,0-.52l42.289-24.415A.954.954,0,0,1,83.211,124.667Z" fill="#fff"/><path d="M120.351,171.02a1.2,1.2,0,0,0-.012,2.266,4.337,4.337,0,0,0,3.924-.007,1.2,1.2,0,0,0,.012-2.266A4.336,4.336,0,0,0,120.351,171.02Z" fill="#dadada"/><path d="M82.332,124.655,40.043,149.07a.275.275,0,0,0,0,.52l56.331,32.523a1.008,1.008,0,0,0,.905,0L139.567,157.7c.248-.143.222-.367-.025-.51L83.211,124.667A.954.954,0,0,0,82.332,124.655Z" fill="#dadada"/><path d="M114.5,52.769l-.082-.046-.082-.046-.082-.046-.082-.046-.082-.046-.082-.047-.082-.046-.082-.046-.082-.046-.082-.046-.082-.046-.082-.046-.082-.046-.082-.046-.082-.046-.082-.046-.082-.046-.082-.046-.082-.046-.082-.046-.082-.046-.082-.046-.082-.046-.082-.046-.082-.046-.082-.046-.082-.046-.082-.046-.082-.046-.082-.046-.082-.047-.082-.046-.082-.046-.082-.046-.082-.046-.082-.046-.082-.046-.082-.046-.082-.046-.082-.046-.082-.046-.082-.046-.082-.046-.082-.046-.082-.046-.082-.046-.082-.047-.082-.046-.082-.046-.082-.046-.082-.046-.082-.046-.082-.046-.082-.046-.082-.046-.082-.046-.082-.046-.082-.046-.082-.046-.082-.046-.082-.046-.082-.046-.082-.047-.082-.046-.082-.046-.082-.046-.082-.046-.082-.047-.082-.046-.082-.046-.082-.046-.082-.046-.082-.046-.082-.046-.082-.046-.082-.046-.082-.046-.082-.046-.082-.046-.082-.046c-1.039-.615-2.485-.536-4.085.388L56.886,76.577a12.616,12.616,0,0,0-5.726,9.876V141.9c0,1.839.661,3.119,1.722,3.7l.082.046.082.046.082.047.082.046.082.046.082.046.082.047.082.046.082.046.082.046.082.046.082.046.082.046.082.046.082.046.082.046.082.046.082.046.082.047.082.046.082.046.082.046.082.047.082.046.082.046.082.046.082.046.082.047.082.046.082.046.082.046.082.046.082.046.082.046.082.046.082.046.082.046.082.046.082.046.082.046.082.046.082.046.082.046.082.047.082.046.082.046.082.046.082.046.082.046.082.046.082.046.082.046.082.046.082.046.082.046.082.046.082.046.082.046.082.046.082.047.082.046.082.046.082.046.082.046.082.046.082.046.082.046.082.046.082.046.082.046.082.046.082.047.082.046.082.046.082.046.082.047.082.046.082.046.082.046.082.046c1.039.615,2.485.536,4.086-.388l16.7-9.643.148.084h0l.082.047h0l.082.047h0l.082.047h0l.082.047h0l.082.047h0l.082.047h0l.082.047h0l.082.047h0l.082.047h0l.082.047h0l.082.047h0l.082.047h0l.082.047h0l.082.047h0l.082.047h0l.082.047h0l.082.047h0l.082.047h0l.082.047h0l.082.047h0l.082.047h0l.082.047h0l.082.047h0l.082.047h0l.082.047h0l.082.047h0l.082.047h0l.082.047h0l.082.047h0l.082.047h0l.082.047h0l.082.047h0l.082.047h0l.082.047h0l.082.047h0l.082.047h0l.082.047h0l.082.047h0l.082.047h0l.082.047h0l.082.047h0l.082.047h0l.082.047h0l.082.047h0l.082.047h0l.082.047h0l.082.047h0l.082.047h0l.082.047h0l.082.047h0l.082.047h0l.082.047h0l.082.047h0l.082.047h0l.082.047h0l.082.047h0l.082.047h0l.082.047h0l.082.047h0l.082.047h0l.082.047h0l.082.047h0l.082.047h0l.082.047h0l.082.047h0l.082.047h0l.082.047h0l.082.047h0l.082.047h0l.082.047h0l.082.047h0l.082.047h0l.082.047h0l.082.047h0l.082.047h0l.082.047h0l.082.047h0l.082.047h0l.082.047h0l.082.047h0l.082.047,6.752-11.646,16.735-9.662a12.616,12.616,0,0,0,5.726-9.876V56.468C116.223,54.628,115.562,53.349,114.5,52.769Z" fill="#ededed"/><path d="M110.5,53.2,63.523,80.324A12.616,12.616,0,0,0,57.8,90.2v55.445c0,3.629,2.563,5.09,5.726,3.264l16.735-9.662,6.752,3.85,6.752-11.646,16.735-9.662a12.616,12.616,0,0,0,5.726-9.876V56.468C116.223,52.839,113.659,51.378,110.5,53.2Z" fill="#fff"/><polygon points="84.711 91.844 85.832 113.612 89.309 110.268 88.188 88.501 84.711 91.844" fill="#fff"/><path d="M98.933,80.781c-2.683-8.712-6.558-8.869-15.5-.628s-11.029,13.893-8.346,22.6,6.558,27.443,15.5,19.2S101.616,89.493,98.933,80.781ZM94.41,108.628l-1.686,1.621.584,1.665a2.671,2.671,0,0,1-.851,2.451,2.2,2.2,0,0,1-.463.347c-.551.3-1.059.19-1.244-.338l-.584-1.665-3.477,3.344.584,1.665a2.671,2.671,0,0,1-.851,2.451,2.2,2.2,0,0,1-.463.347c-.551.3-1.059.19-1.244-.338l-.584-1.665-1.686,1.622a2.2,2.2,0,0,1-.463.347c-.551.3-1.059.19-1.244-.338a2.671,2.671,0,0,1,.851-2.451l1.686-1.622L82.153,94.3l-1.686,1.622a2.2,2.2,0,0,1-.463.347c-.551.3-1.059.19-1.244-.338a2.671,2.671,0,0,1,.851-2.451L81.3,91.864,80.711,90.2a2.671,2.671,0,0,1,.851-2.451c.707-.679,1.471-.684,1.707-.01l.584,1.665,3.477-3.344L86.747,84.4a2.671,2.671,0,0,1,.851-2.451c.706-.679,1.471-.684,1.707-.01l.584,1.665,1.686-1.622c.707-.679,1.471-.684,1.707-.01a2.671,2.671,0,0,1-.851,2.451L90.746,86.04l1.121,21.768,1.686-1.622c.707-.679,1.471-.684,1.707-.01A2.671,2.671,0,0,1,94.41,108.628Z" fill="#fff"/><path d="M129.117,61.373l-.082-.046-.082-.046-.082-.046-.082-.046-.082-.046-.082-.046-.082-.046L128.462,61l-.082-.046-.082-.046-.082-.046-.082-.046-.082-.046-.082-.046-.082-.047-.082-.046-.082-.046-.082-.046-.082-.046-.082-.046L127.4,60.4l-.082-.046-.082-.046-.082-.046-.082-.046-.082-.046-.082-.046-.082-.046-.082-.046-.082-.046-.082-.047-.082-.046-.082-.046-.082-.046-.082-.046-.082-.046-.082-.046L126,59.616l-.082-.046-.082-.046-.082-.046-.082-.046-.082-.046-.082-.046-.082-.046-.082-.046-.082-.046-.082-.046-.082-.046-.082-.046-.082-.046-.082-.047-.082-.046-.082-.046-.082-.046-.082-.046-.082-.046-.082-.046-.082-.046L124.2,58.6l-.082-.046-.082-.046-.082-.046-.082-.046-.082-.046-.082-.046-.082-.046-.082-.047-.082-.046-.082-.046-.082-.046-.082-.046L123.136,58l-.082-.046-.082-.046-.082-.046-.082-.046-.082-.046-.082-.046-.082-.046c-1.039-.615-2.485-.536-4.085.388L71.5,85.182a12.617,12.617,0,0,0-5.726,9.876V150.5c0,1.839.66,3.119,1.722,3.7l.082.046.082.046.082.047.082.046.082.046.082.046.082.047.082.046.082.046.082.046.082.046.082.046.082.046.082.046.082.046.082.046.082.046.082.046.082.047.082.046.082.046.082.046.082.047.082.046.082.046.082.046.082.046.082.046.082.046.082.046.082.046.082.046.082.046.082.046.082.047.082.046.082.046.082.046.082.047.082.046.082.046.082.046.082.046.082.046.082.046.082.046.082.046.082.046.082.046.082.046.082.047.082.046.082.046.082.046.082.046.082.046.082.046.082.046.082.046.082.047.082.046.082.046.082.046.082.046.082.046.082.046.082.046.082.046.082.046.082.046.082.046.082.047.082.046.082.046.082.046.082.047.082.046.082.046.082.046.082.046c1.039.615,2.485.536,4.085-.388l52.7-92.441C130.839,63.233,130.179,61.953,129.117,61.373Z" fill="#159ec3"/><path d="M125.114,61.807,78.14,88.928A12.616,12.616,0,0,0,72.414,98.8v55.445c0,3.629,2.563,5.09,5.726,3.264l16.735-9.662,6.752,3.85,6.752-11.646,16.735-9.662a12.616,12.616,0,0,0,5.726-9.876V65.072C130.839,61.443,128.276,59.982,125.114,61.807Z" fill="#17b9e6"/><polygon points="99.887 109.958 101.008 113.151 104.485 109.807 103.364 106.614 99.887 109.958" fill="#fff"/><path d="M114.109,98.894c-2.683-8.712-6.558-8.869-15.5-.628s-11.029,13.893-8.346,22.6,6.558,8.869,15.5.628S116.792,107.606,114.109,98.894Zm-4.523,9.273-1.686,1.621.584,1.665a2.671,2.671,0,0,1-.851,2.451,2.2,2.2,0,0,1-.463.347c-.551.3-1.059.19-1.244-.338l-.584-1.665-3.477,3.344.584,1.665a2.671,2.671,0,0,1-.851,2.451,2.2,2.2,0,0,1-.463.347c-.551.3-1.059.19-1.244-.338l-.584-1.665-1.686,1.622a2.2,2.2,0,0,1-.463.347c-.551.3-1.059.19-1.244-.338a2.671,2.671,0,0,1,.851-2.451l1.686-1.622-1.121-3.193-1.686,1.622a2.2,2.2,0,0,1-.463.347c-.551.3-1.059.19-1.244-.338a2.671,2.671,0,0,1,.851-2.451l1.686-1.621-.584-1.665a2.671,2.671,0,0,1,.851-2.451c.707-.679,1.471-.684,1.707-.01l.584,1.665,3.477-3.344-.584-1.665a2.671,2.671,0,0,1,.851-2.451c.706-.679,1.471-.684,1.707-.01l.584,1.665,1.686-1.622c.707-.679,1.471-.684,1.707-.01a2.671,2.671,0,0,1-.851,2.451l-1.686,1.621,1.121,3.193,1.686-1.622c.707-.679,1.471-.684,1.707-.01A2.671,2.671,0,0,1,109.586,108.167Z" fill="#fff"/></svg>